<svg viewBox="0 0 40 40" aria-labelledby="icon--navigation-primary--search-desc icon--navigation-primary--search-title" id="icon--navigation-primary--search" xmlns="http://www.w3.org/2000/svg"><title id="icon--navigation-primary--search-title">navigation primary search</title><desc id="icon--navigation-primary--search-desc">navigation primary search</desc><path d="M29.7 27.5l-4.8-4.8c1-1.4 1.6-3.2 1.6-5 0-4.8-3.9-8.8-8.8-8.8S9 12.9 9 17.8c0 4.8 3.9 8.8 8.8 8.8 1.9 0 3.6-.6 5-1.6l4.8 4.8c.3.3.7.4 1.1.4s.8-.1 1.1-.4c.5-.7.5-1.7-.1-2.3zM12 17.8c0-3.2 2.6-5.8 5.8-5.8s5.8 2.6 5.8 5.8-2.6 5.8-5.8 5.8-5.8-2.7-5.8-5.8z"></path></svg>