<svg version="1.1" baseProfile="basic" id="Layer_1"
	 xmlns="http://www.w3.org/2000/svg" xmlns:xlink="http://www.w3.org/1999/xlink" x="0px" y="0px" viewBox="0 0 2847.2 949.4"
	 xml:space="preserve">
<circle id="XMLID_42_" fill="#12352E" stroke="#12352E" stroke-miterlimit="10" cx="-3060.6" cy="-19" r="320.1"/>
<g id="XMLID_123_">
	<g id="XMLID_12_">
		
			<line id="XMLID_2_" fill="#12352E" stroke="#12352E" stroke-width="5" stroke-miterlimit="10" x1="-3159.7" y1="840" x2="-3159.7" y2="1059"/>
		<g id="XMLID_3_">
			<line id="XMLID_298_" fill="#12352E" x1="-3160.2" y1="840" x2="-3160.2" y2="1059"/>
			<polygon id="XMLID_271_" fill="#12352E" points="-3157.3,840 -3151.8,1059 -3167.7,1059 -3162.3,840 			"/>
		</g>
		
			<line id="XMLID_4_" fill="#12352E" stroke="#12352E" stroke-width="5" stroke-miterlimit="10" x1="-3158.9" y1="839.5" x2="-3221.8" y2="902.4"/>
		
			<line id="XMLID_5_" fill="#12352E" stroke="#12352E" stroke-width="5" stroke-miterlimit="10" x1="-3159.8" y1="888.4" x2="-3244.7" y2="973.3"/>
		
			<line id="XMLID_6_" fill="#12352E" stroke="#12352E" stroke-width="5" stroke-miterlimit="10" x1="-3159.8" y1="938" x2="-3249.1" y2="1027.3"/>
		
			<line id="XMLID_7_" fill="#12352E" stroke="#12352E" stroke-width="5" stroke-miterlimit="10" x1="-3159.8" y1="982.6" x2="-3199.7" y2="1022.6"/>
		
			<line id="XMLID_11_" fill="#12352E" stroke="#12352E" stroke-width="5" stroke-miterlimit="10" x1="-3160.7" y1="839.5" x2="-3097.8" y2="902.3"/>
		
			<line id="XMLID_10_" fill="#12352E" stroke="#12352E" stroke-width="5" stroke-miterlimit="10" x1="-3159.8" y1="888.4" x2="-3074.9" y2="973.3"/>
		
			<line id="XMLID_9_" fill="#12352E" stroke="#12352E" stroke-width="5" stroke-miterlimit="10" x1="-3159.8" y1="938" x2="-3070.5" y2="1027.3"/>
		
			<line id="XMLID_8_" fill="#12352E" stroke="#12352E" stroke-width="5" stroke-miterlimit="10" x1="-3159.8" y1="982.6" x2="-3119.8" y2="1022.6"/>
	</g>
	<g id="XMLID_13_">
		
			<line id="XMLID_25_" fill="#12352E" stroke="#12352E" stroke-width="5" stroke-miterlimit="10" x1="-3017.7" y1="920" x2="-3017.7" y2="1059"/>
		<g id="XMLID_24_">
			<line id="XMLID_326_" fill="#12352E" x1="-3018.2" y1="919.4" x2="-3018.2" y2="1059.4"/>
			<polygon id="XMLID_325_" fill="#12352E" points="-3015.7,919.4 -3010.3,1059.4 -3026.1,1059.4 -3020.7,919.4 			"/>
		</g>
		
			<line id="XMLID_23_" fill="#12352E" stroke="#12352E" stroke-width="5" stroke-miterlimit="10" x1="-3017.3" y1="918.9" x2="-3057.4" y2="959"/>
		
			<line id="XMLID_22_" fill="#12352E" stroke="#12352E" stroke-width="5" stroke-miterlimit="10" x1="-3018.2" y1="950.4" x2="-3072.3" y2="1004.5"/>
		
			<line id="XMLID_21_" fill="#12352E" stroke="#12352E" stroke-width="5" stroke-miterlimit="10" x1="-3018.2" y1="982" x2="-3075.2" y2="1038.9"/>
		
			<line id="XMLID_20_" fill="#12352E" stroke="#12352E" stroke-width="5" stroke-miterlimit="10" x1="-3018.2" y1="1010.5" x2="-3043.7" y2="1036"/>
		
			<line id="XMLID_17_" fill="#12352E" stroke="#12352E" stroke-width="5" stroke-miterlimit="10" x1="-3019.1" y1="918.9" x2="-2979" y2="959"/>
		
			<line id="XMLID_16_" fill="#12352E" stroke="#12352E" stroke-width="5" stroke-miterlimit="10" x1="-3018.2" y1="950.4" x2="-2964.1" y2="1004.5"/>
		
			<line id="XMLID_15_" fill="#12352E" stroke="#12352E" stroke-width="5" stroke-miterlimit="10" x1="-3018.2" y1="982" x2="-2961.3" y2="1038.9"/>
		
			<line id="XMLID_14_" fill="#12352E" stroke="#12352E" stroke-width="5" stroke-miterlimit="10" x1="-3018.2" y1="1010.5" x2="-2992.8" y2="1036"/>
	</g>
	<g id="XMLID_26_">
		
			<line id="XMLID_38_" fill="#12352E" stroke="#12352E" stroke-width="5" stroke-miterlimit="10" x1="-3289.7" y1="960" x2="-3289.7" y2="1059"/>
		<g id="XMLID_37_">
			<line id="XMLID_385_" fill="#12352E" x1="-3289.2" y1="960" x2="-3289.2" y2="1059"/>
			<polygon id="XMLID_384_" fill="#12352E" points="-3287,960 -3281.6,1059 -3297.5,1059 -3292,960 			"/>
		</g>
		
			<line id="XMLID_36_" fill="#12352E" stroke="#12352E" stroke-width="5" stroke-miterlimit="10" x1="-3288.7" y1="958.9" x2="-3317.3" y2="987.5"/>
		
			<line id="XMLID_35_" fill="#12352E" stroke="#12352E" stroke-width="5" stroke-miterlimit="10" x1="-3289.5" y1="981.7" x2="-3328.1" y2="1020.3"/>
		
			<line id="XMLID_34_" fill="#12352E" stroke="#12352E" stroke-width="5" stroke-miterlimit="10" x1="-3289.5" y1="1004.2" x2="-3330.1" y2="1044.8"/>
		
			<line id="XMLID_31_" fill="#12352E" stroke="#12352E" stroke-width="5" stroke-miterlimit="10" x1="-3289.5" y1="1024.5" x2="-3307.7" y2="1042.7"/>
		
			<line id="XMLID_30_" fill="#12352E" stroke="#12352E" stroke-width="5" stroke-miterlimit="10" x1="-3290.5" y1="958.9" x2="-3262" y2="987.5"/>
		
			<line id="XMLID_29_" fill="#12352E" stroke="#12352E" stroke-width="5" stroke-miterlimit="10" x1="-3289.6" y1="981.7" x2="-3251" y2="1020.3"/>
		
			<line id="XMLID_28_" fill="#12352E" stroke="#12352E" stroke-width="5" stroke-miterlimit="10" x1="-3289.6" y1="1004.2" x2="-3249" y2="1044.8"/>
		
			<line id="XMLID_27_" fill="#12352E" stroke="#12352E" stroke-width="5" stroke-miterlimit="10" x1="-3289.6" y1="1024.5" x2="-3271.4" y2="1042.7"/>
	</g>
</g>
<line id="XMLID_18_" fill="#12352E" stroke="#12352E" stroke-width="8" stroke-miterlimit="10" x1="-3433.2" y1="1087" x2="-2873.2" y2="1087"/>
<line id="XMLID_19_" fill="#00FFFF" stroke="#12352E" stroke-width="8" stroke-miterlimit="10" x1="-3433.2" y1="1187" x2="-3230.2" y2="1187"/>
<line id="XMLID_40_" fill="#00FFFF" stroke="#12352E" stroke-width="8" stroke-miterlimit="10" x1="-3093.2" y1="1187" x2="-2872.2" y2="1187"/>
<text id="XMLID_51_" transform="matrix(1 0 0 1 -3415.0537 1161.2281)" fill="#E7BE59" stroke="#E7BE59" stroke-miterlimit="10" font-family="'NuevaStd-Bold'" font-size="69.2851px" letter-spacing="5">OUTDOOR LINE</text>
<text id="XMLID_52_" transform="matrix(1 0 0 1 -3224.5222 1193.0342)" fill="#E7BE59" stroke="#E7BE59" stroke-miterlimit="10" font-family="'ModernSansLight'" font-size="21.4154px" letter-spacing="1">SINCE 2002</text>
<g id="XMLID_258_">
	<g id="XMLID_287_">
		
			<line id="XMLID_300_" fill="#999999" stroke="#999999" stroke-width="5" stroke-miterlimit="10" x1="-3073.7" y1="398" x2="-3073.7" y2="617"/>
		<g id="XMLID_296_">
			<line id="XMLID_356_" fill="#999999" x1="-3074.2" y1="398" x2="-3074.2" y2="617"/>
			<polygon id="XMLID_355_" fill="#999999" points="-3071.3,398 -3065.8,617 -3081.7,617 -3076.3,398 			"/>
		</g>
		
			<line id="XMLID_295_" fill="#999999" stroke="#999999" stroke-width="5" stroke-miterlimit="10" x1="-3072.9" y1="397.5" x2="-3135.8" y2="460.4"/>
		
			<line id="XMLID_294_" fill="#999999" stroke="#999999" stroke-width="5" stroke-miterlimit="10" x1="-3073.8" y1="446.4" x2="-3158.7" y2="531.3"/>
		
			<line id="XMLID_293_" fill="#999999" stroke="#999999" stroke-width="5" stroke-miterlimit="10" x1="-3073.8" y1="496" x2="-3163.1" y2="585.3"/>
		
			<line id="XMLID_292_" fill="#999999" stroke="#999999" stroke-width="5" stroke-miterlimit="10" x1="-3073.8" y1="540.6" x2="-3113.7" y2="580.6"/>
		
			<line id="XMLID_291_" fill="#999999" stroke="#999999" stroke-width="5" stroke-miterlimit="10" x1="-3074.7" y1="397.5" x2="-3011.8" y2="460.3"/>
		
			<line id="XMLID_290_" fill="#999999" stroke="#999999" stroke-width="5" stroke-miterlimit="10" x1="-3073.8" y1="446.4" x2="-2988.9" y2="531.3"/>
		
			<line id="XMLID_289_" fill="#999999" stroke="#999999" stroke-width="5" stroke-miterlimit="10" x1="-3073.8" y1="496" x2="-2984.5" y2="585.3"/>
		
			<line id="XMLID_288_" fill="#999999" stroke="#999999" stroke-width="5" stroke-miterlimit="10" x1="-3073.8" y1="540.6" x2="-3033.8" y2="580.6"/>
	</g>
	<g id="XMLID_273_">
		
			<line id="XMLID_286_" fill="#999999" stroke="#999999" stroke-width="5" stroke-miterlimit="10" x1="-2931.7" y1="478" x2="-2931.7" y2="617"/>
		<g id="XMLID_282_">
			<line id="XMLID_576_" fill="#999999" x1="-2932.2" y1="477.4" x2="-2932.2" y2="617.4"/>
			<polygon id="XMLID_574_" fill="#999999" points="-2929.7,477.4 -2924.3,617.4 -2940.1,617.4 -2934.7,477.4 			"/>
		</g>
		
			<line id="XMLID_281_" fill="#999999" stroke="#999999" stroke-width="5" stroke-miterlimit="10" x1="-2931.3" y1="476.9" x2="-2971.4" y2="517"/>
		
			<line id="XMLID_280_" fill="#999999" stroke="#999999" stroke-width="5" stroke-miterlimit="10" x1="-2932.2" y1="508.4" x2="-2986.3" y2="562.5"/>
		
			<line id="XMLID_279_" fill="#999999" stroke="#999999" stroke-width="5" stroke-miterlimit="10" x1="-2932.2" y1="540" x2="-2989.2" y2="596.9"/>
		
			<line id="XMLID_278_" fill="#999999" stroke="#999999" stroke-width="5" stroke-miterlimit="10" x1="-2932.2" y1="568.5" x2="-2957.7" y2="594"/>
		
			<line id="XMLID_277_" fill="#999999" stroke="#999999" stroke-width="5" stroke-miterlimit="10" x1="-2933.1" y1="476.9" x2="-2893" y2="517"/>
		
			<line id="XMLID_276_" fill="#999999" stroke="#999999" stroke-width="5" stroke-miterlimit="10" x1="-2932.2" y1="508.4" x2="-2878.1" y2="562.5"/>
		
			<line id="XMLID_275_" fill="#999999" stroke="#999999" stroke-width="5" stroke-miterlimit="10" x1="-2932.2" y1="540" x2="-2875.3" y2="596.9"/>
		
			<line id="XMLID_274_" fill="#999999" stroke="#999999" stroke-width="5" stroke-miterlimit="10" x1="-2932.2" y1="568.5" x2="-2906.8" y2="594"/>
	</g>
	<g id="XMLID_259_">
		
			<line id="XMLID_272_" fill="#999999" stroke="#999999" stroke-width="5" stroke-miterlimit="10" x1="-3203.7" y1="518" x2="-3203.7" y2="617"/>
		<g id="XMLID_268_">
			<line id="XMLID_580_" fill="#999999" x1="-3203.2" y1="518" x2="-3203.2" y2="617"/>
			<polygon id="XMLID_579_" fill="#999999" points="-3201,518 -3195.6,617 -3211.5,617 -3206,518 			"/>
		</g>
		
			<line id="XMLID_267_" fill="#999999" stroke="#999999" stroke-width="5" stroke-miterlimit="10" x1="-3202.7" y1="516.9" x2="-3231.3" y2="545.5"/>
		
			<line id="XMLID_266_" fill="#999999" stroke="#999999" stroke-width="5" stroke-miterlimit="10" x1="-3203.5" y1="539.7" x2="-3242.1" y2="578.3"/>
		
			<line id="XMLID_265_" fill="#999999" stroke="#999999" stroke-width="5" stroke-miterlimit="10" x1="-3203.5" y1="562.2" x2="-3244.1" y2="602.8"/>
		
			<line id="XMLID_264_" fill="#999999" stroke="#999999" stroke-width="5" stroke-miterlimit="10" x1="-3203.5" y1="582.5" x2="-3221.7" y2="600.7"/>
		
			<line id="XMLID_263_" fill="#999999" stroke="#999999" stroke-width="5" stroke-miterlimit="10" x1="-3204.5" y1="516.9" x2="-3176" y2="545.5"/>
		
			<line id="XMLID_262_" fill="#999999" stroke="#999999" stroke-width="5" stroke-miterlimit="10" x1="-3203.6" y1="539.7" x2="-3165" y2="578.3"/>
		
			<line id="XMLID_261_" fill="#999999" stroke="#999999" stroke-width="5" stroke-miterlimit="10" x1="-3203.6" y1="562.2" x2="-3163" y2="602.8"/>
		
			<line id="XMLID_260_" fill="#999999" stroke="#999999" stroke-width="5" stroke-miterlimit="10" x1="-3203.6" y1="582.5" x2="-3185.4" y2="600.7"/>
	</g>
</g>
<line id="XMLID_108_" fill="#999999" stroke="#999999" stroke-width="8" stroke-miterlimit="10" x1="-3347.2" y1="645" x2="-2787.2" y2="645"/>
<line id="XMLID_107_" fill="#999999" stroke="#999999" stroke-width="8" stroke-miterlimit="10" x1="-3347.2" y1="745" x2="-3144.2" y2="745"/>
<line id="XMLID_95_" fill="#999999" stroke="#999999" stroke-width="8" stroke-miterlimit="10" x1="-3007.2" y1="745" x2="-2786.2" y2="745"/>
<text id="XMLID_94_" transform="matrix(1 0 0 1 -3329.0537 719.2281)" fill="#999999" stroke="#999999" stroke-miterlimit="10" font-family="'NuevaStd-Bold'" font-size="69.2851px" letter-spacing="5">OUTDOOR LINE</text>
<text id="XMLID_93_" transform="matrix(1 0 0 1 -3138.5222 751.0341)" fill="#999999" stroke="#999999" stroke-miterlimit="10" font-family="'ModernSansLight'" font-size="21.4154px" letter-spacing="1">SINCE 2002</text>
<g id="XMLID_97_">
	
		<line id="XMLID_110_" fill="#E7BE59" stroke="#E7BE59" stroke-width="5" stroke-miterlimit="10" x1="-3067.7" y1="-223" x2="-3067.7" y2="-4"/>
	<g id="XMLID_106_">
		<line id="XMLID_677_" fill="#E7BE59" x1="-3068.2" y1="-223" x2="-3068.2" y2="-4"/>
		<polygon id="XMLID_676_" fill="#E7BE59" points="-3065.3,-223 -3059.8,-4 -3075.7,-4 -3070.3,-223 		"/>
	</g>
	
		<line id="XMLID_105_" fill="#E7BE59" stroke="#E7BE59" stroke-width="5" stroke-miterlimit="10" x1="-3066.9" y1="-223.5" x2="-3129.8" y2="-160.6"/>
	
		<line id="XMLID_104_" fill="#E7BE59" stroke="#E7BE59" stroke-width="5" stroke-miterlimit="10" x1="-3067.8" y1="-174.6" x2="-3152.7" y2="-89.7"/>
	
		<line id="XMLID_103_" fill="#E7BE59" stroke="#E7BE59" stroke-width="5" stroke-miterlimit="10" x1="-3067.8" y1="-125" x2="-3157.1" y2="-35.7"/>
	
		<line id="XMLID_102_" fill="#E7BE59" stroke="#E7BE59" stroke-width="5" stroke-miterlimit="10" x1="-3067.8" y1="-80.4" x2="-3107.7" y2="-40.4"/>
	
		<line id="XMLID_101_" fill="#E7BE59" stroke="#E7BE59" stroke-width="5" stroke-miterlimit="10" x1="-3068.7" y1="-223.5" x2="-3005.8" y2="-160.7"/>
	
		<line id="XMLID_100_" fill="#E7BE59" stroke="#E7BE59" stroke-width="5" stroke-miterlimit="10" x1="-3067.8" y1="-174.6" x2="-2982.9" y2="-89.7"/>
	
		<line id="XMLID_99_" fill="#E7BE59" stroke="#E7BE59" stroke-width="5" stroke-miterlimit="10" x1="-3067.8" y1="-125" x2="-2978.5" y2="-35.7"/>
	
		<line id="XMLID_98_" fill="#E7BE59" stroke="#E7BE59" stroke-width="5" stroke-miterlimit="10" x1="-3067.8" y1="-80.4" x2="-3027.8" y2="-40.4"/>
</g>
<g id="XMLID_83_">
	
		<line id="XMLID_96_" fill="#E7BE59" stroke="#E7BE59" stroke-width="5" stroke-miterlimit="10" x1="-2925.7" y1="-143" x2="-2925.7" y2="-4"/>
	<g id="XMLID_92_">
		<line id="XMLID_681_" fill="#E7BE59" x1="-2926.2" y1="-143.6" x2="-2926.2" y2="-3.6"/>
		<polygon id="XMLID_680_" fill="#E7BE59" points="-2923.7,-143.6 -2918.3,-3.6 -2934.1,-3.6 -2928.7,-143.6 		"/>
	</g>
	
		<line id="XMLID_91_" fill="#E7BE59" stroke="#E7BE59" stroke-width="5" stroke-miterlimit="10" x1="-2925.3" y1="-144.1" x2="-2965.4" y2="-104"/>
	
		<line id="XMLID_90_" fill="#E7BE59" stroke="#E7BE59" stroke-width="5" stroke-miterlimit="10" x1="-2926.2" y1="-112.6" x2="-2980.3" y2="-58.5"/>
	
		<line id="XMLID_89_" fill="#E7BE59" stroke="#E7BE59" stroke-width="5" stroke-miterlimit="10" x1="-2926.2" y1="-81" x2="-2983.2" y2="-24.1"/>
	
		<line id="XMLID_88_" fill="#E7BE59" stroke="#E7BE59" stroke-width="5" stroke-miterlimit="10" x1="-2926.2" y1="-52.5" x2="-2951.7" y2="-27"/>
	
		<line id="XMLID_87_" fill="#E7BE59" stroke="#E7BE59" stroke-width="5" stroke-miterlimit="10" x1="-2927.1" y1="-144.1" x2="-2887" y2="-104"/>
	
		<line id="XMLID_86_" fill="#E7BE59" stroke="#E7BE59" stroke-width="5" stroke-miterlimit="10" x1="-2926.2" y1="-112.6" x2="-2872.1" y2="-58.5"/>
	
		<line id="XMLID_85_" fill="#E7BE59" stroke="#E7BE59" stroke-width="5" stroke-miterlimit="10" x1="-2926.2" y1="-81" x2="-2869.3" y2="-24.1"/>
	
		<line id="XMLID_84_" fill="#E7BE59" stroke="#E7BE59" stroke-width="5" stroke-miterlimit="10" x1="-2926.2" y1="-52.5" x2="-2900.8" y2="-27"/>
</g>
<g id="XMLID_69_">
	
		<line id="XMLID_82_" fill="#E7BE59" stroke="#E7BE59" stroke-width="5" stroke-miterlimit="10" x1="-3197.7" y1="-103" x2="-3197.7" y2="-4"/>
	<g id="XMLID_78_">
		<line id="XMLID_744_" fill="#E7BE59" x1="-3197.2" y1="-103" x2="-3197.2" y2="-4"/>
		<polygon id="XMLID_743_" fill="#E7BE59" points="-3195,-103 -3189.6,-4 -3205.5,-4 -3200,-103 		"/>
	</g>
	
		<line id="XMLID_77_" fill="#E7BE59" stroke="#E7BE59" stroke-width="5" stroke-miterlimit="10" x1="-3196.7" y1="-104.1" x2="-3225.3" y2="-75.5"/>
	
		<line id="XMLID_76_" fill="#E7BE59" stroke="#E7BE59" stroke-width="5" stroke-miterlimit="10" x1="-3197.5" y1="-81.3" x2="-3236.1" y2="-42.7"/>
	
		<line id="XMLID_75_" fill="#E7BE59" stroke="#E7BE59" stroke-width="5" stroke-miterlimit="10" x1="-3197.5" y1="-58.8" x2="-3238.1" y2="-18.2"/>
	
		<line id="XMLID_74_" fill="#E7BE59" stroke="#E7BE59" stroke-width="5" stroke-miterlimit="10" x1="-3197.5" y1="-38.5" x2="-3215.7" y2="-20.3"/>
	
		<line id="XMLID_73_" fill="#E7BE59" stroke="#E7BE59" stroke-width="5" stroke-miterlimit="10" x1="-3198.5" y1="-104.1" x2="-3170" y2="-75.5"/>
	
		<line id="XMLID_72_" fill="#E7BE59" stroke="#E7BE59" stroke-width="5" stroke-miterlimit="10" x1="-3197.6" y1="-81.3" x2="-3159" y2="-42.7"/>
	
		<line id="XMLID_71_" fill="#E7BE59" stroke="#E7BE59" stroke-width="5" stroke-miterlimit="10" x1="-3197.6" y1="-58.8" x2="-3157" y2="-18.2"/>
	
		<line id="XMLID_70_" fill="#E7BE59" stroke="#E7BE59" stroke-width="5" stroke-miterlimit="10" x1="-3197.6" y1="-38.5" x2="-3179.4" y2="-20.3"/>
</g>
<line id="XMLID_53_" fill="#E7BE59" stroke="#E7BE59" stroke-width="8" stroke-miterlimit="10" x1="-3341.2" y1="24" x2="-2781.2" y2="24"/>
<line id="XMLID_47_" fill="#E7BE59" stroke="#E7BE59" stroke-width="8" stroke-miterlimit="10" x1="-3341.2" y1="124" x2="-3138.2" y2="124"/>
<line id="XMLID_46_" fill="#E7BE59" stroke="#E7BE59" stroke-width="8" stroke-miterlimit="10" x1="-3001.2" y1="124" x2="-2780.2" y2="124"/>
<text id="XMLID_45_" transform="matrix(1 0 0 1 -3323.0537 98.2281)" fill="#FFFFFF" stroke="#FFFFFF" stroke-miterlimit="10" font-family="'NuevaStd-Bold'" font-size="69.2851px" letter-spacing="5">OUTDOOR LINE</text>
<text id="XMLID_44_" transform="matrix(1 0 0 1 -3132.5222 130.0341)" fill="#FFFFFF" stroke="#FFFFFF" stroke-miterlimit="10" font-family="'ModernSansLight'" font-size="21.4154px" letter-spacing="1">SINCE 2002</text>
<g id="XMLID_119_">
	<circle id="XMLID_510_" stroke="#FFFFFF" stroke-width="6" stroke-miterlimit="10" cx="-2077.3" cy="-17.9" r="380.9"/>
	<g id="XMLID_537_">
		<g id="XMLID_649_">
			<line id="XMLID_683_" fill="#FFFFFF" stroke="#FFFFFF" stroke-miterlimit="10" x1="-2087.7" y1="-195" x2="-2087.7" y2="137"/>
			
				<line id="XMLID_679_" fill="#FFFFFF" stroke="#FFFFFF" stroke-width="0.5" stroke-miterlimit="10" x1="-2085.2" y1="-195.8" x2="-2160.6" y2="-120.4"/>
			
				<line id="XMLID_675_" fill="#FFFFFF" stroke="#FFFFFF" stroke-width="0.5" stroke-miterlimit="10" x1="-2086.2" y1="-137.2" x2="-2188" y2="-35.4"/>
			
				<line id="XMLID_670_" fill="#FFFFFF" stroke="#FFFFFF" stroke-width="0.5" stroke-miterlimit="10" x1="-2086.2" y1="-77.7" x2="-2193.3" y2="29.4"/>
			
				<line id="XMLID_666_" fill="#FFFFFF" stroke="#FFFFFF" stroke-width="0.5" stroke-miterlimit="10" x1="-2086.2" y1="-24.2" x2="-2134.2" y2="23.8"/>
			
				<line id="XMLID_662_" fill="#FFFFFF" stroke="#FFFFFF" stroke-width="0.5" stroke-miterlimit="10" x1="-2087.3" y1="-195.9" x2="-2011.9" y2="-120.4"/>
			
				<line id="XMLID_658_" fill="#FFFFFF" stroke="#FFFFFF" stroke-width="0.5" stroke-miterlimit="10" x1="-2086.3" y1="-137.2" x2="-1984.5" y2="-35.4"/>
			
				<line id="XMLID_654_" fill="#FFFFFF" stroke="#FFFFFF" stroke-width="0.5" stroke-miterlimit="10" x1="-2086.3" y1="-77.7" x2="-1979.2" y2="29.4"/>
			
				<line id="XMLID_650_" fill="#FFFFFF" stroke="#FFFFFF" stroke-width="0.5" stroke-miterlimit="10" x1="-2086.3" y1="-24.2" x2="-2038.4" y2="23.8"/>
		</g>
		<g id="XMLID_605_">
			
				<line id="XMLID_645_" fill="#FFFFFF" stroke="#FFFFFF" stroke-width="0.5" stroke-miterlimit="10" x1="-1916.2" y1="-99" x2="-1916.5" y2="103.9"/>
			<path id="XMLID_642_" fill="#FFFFFF" stroke="#FFFFFF" stroke-width="0.5" stroke-miterlimit="10" d="M-1916.5,103.9"/>
			<path id="XMLID_639_" fill="#FFFFFF" stroke="#FFFFFF" stroke-width="0.5" stroke-miterlimit="10" d="M-1916.5-99.9"/>
			
				<line id="XMLID_635_" fill="#FFFFFF" stroke="#FFFFFF" stroke-width="0.5" stroke-miterlimit="10" x1="-1915.4" y1="-100.6" x2="-1963.5" y2="-52.6"/>
			
				<line id="XMLID_631_" fill="#FFFFFF" stroke="#FFFFFF" stroke-width="0.5" stroke-miterlimit="10" x1="-1916.5" y1="-62.9" x2="-1981.4" y2="2"/>
			
				<line id="XMLID_627_" fill="#FFFFFF" stroke="#FFFFFF" stroke-width="0.5" stroke-miterlimit="10" x1="-1916.5" y1="-24.9" x2="-1984.8" y2="43.3"/>
			
				<line id="XMLID_623_" fill="#FFFFFF" stroke="#FFFFFF" stroke-width="0.5" stroke-miterlimit="10" x1="-1916.5" y1="9.2" x2="-1947.1" y2="39.8"/>
			
				<line id="XMLID_619_" fill="#FFFFFF" stroke="#FFFFFF" stroke-width="0.5" stroke-miterlimit="10" x1="-1917.6" y1="-100.6" x2="-1869.5" y2="-52.6"/>
			
				<line id="XMLID_615_" fill="#FFFFFF" stroke="#FFFFFF" stroke-width="0.5" stroke-miterlimit="10" x1="-1916.5" y1="-62.9" x2="-1851.6" y2="2"/>
			
				<line id="XMLID_610_" fill="#FFFFFF" stroke="#FFFFFF" stroke-width="0.5" stroke-miterlimit="10" x1="-1916.5" y1="-24.9" x2="-1848.3" y2="43.3"/>
			
				<line id="XMLID_606_" fill="#FFFFFF" stroke="#FFFFFF" stroke-width="0.5" stroke-miterlimit="10" x1="-1916.5" y1="9.2" x2="-1886" y2="39.8"/>
		</g>
		<g id="XMLID_562_">
			<line id="XMLID_601_" fill="#FFFFFF" stroke="#FFFFFF" stroke-miterlimit="10" x1="-2243.7" y1="-51" x2="-2243.7" y2="105"/>
			
				<line id="XMLID_597_" fill="#FFFFFF" stroke="#FFFFFF" stroke-width="0.5" stroke-miterlimit="10" x1="-2240.9" y1="-52.7" x2="-2275.1" y2="-18.4"/>
			
				<line id="XMLID_593_" fill="#FFFFFF" stroke="#FFFFFF" stroke-width="0.5" stroke-miterlimit="10" x1="-2241.9" y1="-25.3" x2="-2288.1" y2="20.9"/>
			
				<line id="XMLID_589_" fill="#FFFFFF" stroke="#FFFFFF" stroke-width="0.5" stroke-miterlimit="10" x1="-2241.9" y1="1.7" x2="-2290.5" y2="50.4"/>
			
				<line id="XMLID_585_" fill="#FFFFFF" stroke="#FFFFFF" stroke-width="0.5" stroke-miterlimit="10" x1="-2241.9" y1="26" x2="-2263.6" y2="47.8"/>
			
				<line id="XMLID_581_" fill="#FFFFFF" stroke="#FFFFFF" stroke-width="0.5" stroke-miterlimit="10" x1="-2243" y1="-52.7" x2="-2208.8" y2="-18.4"/>
			
				<line id="XMLID_575_" fill="#FFFFFF" stroke="#FFFFFF" stroke-width="0.5" stroke-miterlimit="10" x1="-2241.9" y1="-25.3" x2="-2195.6" y2="20.9"/>
			
				<line id="XMLID_567_" fill="#FFFFFF" stroke="#FFFFFF" stroke-width="0.5" stroke-miterlimit="10" x1="-2241.9" y1="1.7" x2="-2193.2" y2="50.4"/>
			
				<line id="XMLID_563_" fill="#FFFFFF" stroke="#FFFFFF" stroke-width="0.5" stroke-miterlimit="10" x1="-2241.9" y1="26" x2="-2220.1" y2="47.8"/>
		</g>
	</g>
	<path id="XMLID_531_" fill="none" d="M-2214.8-280.1c144.2-75.7,322.4-20.1,398.1,124.1c75.7,144.2,20.1,322.4-124.1,398.1
		s-322.4,20.1-398.1-124.1C-2419.9-36.3-2345.3-211.6-2214.8-280.1z"/>
	<text id="XMLID_530_" transform="matrix(0.7036 -0.7106 0.7106 0.7036 -2299.5269 -213.1692)"><tspan x="0" y="0" fill="#FFFFFF" font-family="'TrajanPro-Regular'" font-size="46px">O</tspan><tspan x="52.1" y="1" fill="#FFFFFF" font-family="'TrajanPro-Regular'" font-size="46px" rotate="9.9">U</tspan><tspan x="99.4" y="10.3" fill="#FFFFFF" font-family="'TrajanPro-Regular'" font-size="46px" rotate="19.1">T</tspan><tspan x="138.9" y="24.4" fill="#FFFFFF" font-family="'TrajanPro-Regular'" font-size="46px" rotate="28.2">D</tspan><tspan x="184.4" y="49.7" fill="#FFFFFF" font-family="'TrajanPro-Regular'" font-size="46px" rotate="38.3">O</tspan><tspan x="224.7" y="82.7" fill="#FFFFFF" font-family="'TrajanPro-Regular'" font-size="46px" rotate="48.5">O</tspan><tspan x="258.4" y="122.5" fill="#FFFFFF" font-family="'TrajanPro-Regular'" font-size="46px" rotate="57.9">R</tspan><tspan x="281.3" y="161.2" fill="#FFFFFF" font-family="'TrajanPro-Regular'" font-size="46px" rotate="64.7"> </tspan><tspan x="292" y="184.3" fill="#FFFFFF" font-family="'TrajanPro-Regular'" font-size="46px" rotate="70.8">L</tspan><tspan x="303.6" y="220.1" fill="#FFFFFF" font-family="'TrajanPro-Regular'" font-size="46px" rotate="77.4">I</tspan><tspan x="310.4" y="249.8" fill="#FFFFFF" font-family="'TrajanPro-Regular'" font-size="46px" rotate="85.6">N</tspan><tspan x="313.1" y="303.4" fill="#FFFFFF" font-family="'TrajanPro-Regular'" font-size="46px" rotate="94.6">E</tspan><tspan x="309.2" y="341.7" fill="#FFFFFF" font-family="'ModernSansLight'" font-size="42px" rotate="101.1"> </tspan><tspan x="303.4" y="368.7" fill="#FFFFFF" font-family="'TrajanPro-Regular'" font-size="42px" rotate="106"> </tspan><tspan x="296.6" y="391.1" fill="#FFFFFF" font-family="'TrajanPro-Regular'" font-size="42px" rotate="110.5"> </tspan><tspan x="288.1" y="412.8" fill="#FFFFFF" font-family="'TrajanPro-Regular'" font-size="42px" rotate="115"> </tspan><tspan x="277.9" y="433.8" fill="#FFFFFF" font-family="'TrajanPro-Regular'" font-size="42px" rotate="119.5"> </tspan><tspan x="266" y="453.9" fill="#FFFFFF" font-family="'TrajanPro-Regular'" font-size="42px" rotate="124.1"> </tspan></text>
	<path id="XMLID_529_" fill="none" d="M-2308.7,165.4c-100.9-127.8-79-313.2,48.8-414.1s313.2-79,414.1,48.8
		c100.9,127.8,79,313.2-48.8,414.1C-2031.4,322.1-2217.4,281.1-2308.7,165.4z"/>
	<text id="XMLID_528_" transform="matrix(-0.7638 -0.6454 0.6454 -0.7638 -2265.9143 208.8798)"><tspan x="0" y="0" fill="#FFFFFF" font-family="'TrajanPro-Regular'" font-size="30px"> </tspan><tspan x="16.8" y="0.2" fill="#FFFFFF" font-family="'TrajanPro-Regular'" font-size="30px" rotate="3.4"> </tspan><tspan x="33.6" y="1.4" fill="#FFFFFF" font-family="'TrajanPro-Regular'" font-size="30px" rotate="6.8"> </tspan><tspan x="50.3" y="3.6" fill="#FFFFFF" font-family="'TrajanPro-Regular'" font-size="30px" rotate="10.3"> </tspan><tspan x="66.7" y="6.8" fill="#FFFFFF" font-family="'TrajanPro-Regular'" font-size="30px" rotate="13.9">ยบ</tspan><tspan x="86.3" y="11.9" fill="#FFFFFF" font-family="'TrajanPro-Regular'" font-size="30px" rotate="17.5"> </tspan><tspan x="102.2" y="17" fill="#FFFFFF" font-family="'TrajanPro-Regular'" font-size="30px" rotate="21.9">A</tspan><tspan x="128" y="27.5" fill="#FFFFFF" font-family="'TrajanPro-Regular'" font-size="30px" rotate="27.9">D</tspan><tspan x="158.1" y="44.1" fill="#FFFFFF" font-family="'TrajanPro-Regular'" font-size="30px" rotate="34.1">V</tspan><tspan x="182" y="60.8" fill="#FFFFFF" font-family="'TrajanPro-Regular'" font-size="30px" rotate="39.4">E</tspan><tspan x="201.3" y="76.8" fill="#FFFFFF" font-family="'TrajanPro-Regular'" font-size="30px" rotate="45.3">N</tspan><tspan x="225.7" y="102.3" fill="#FFFFFF" font-family="'TrajanPro-Regular'" font-size="30px" rotate="51.4">T</tspan><tspan x="242.8" y="124" fill="#FFFFFF" font-family="'TrajanPro-Regular'" font-size="30px" rotate="57.1">U</tspan><tspan x="259.7" y="150.9" fill="#FFFFFF" font-family="'TrajanPro-Regular'" font-size="30px" rotate="63">R</tspan><tspan x="272.7" y="177.4" fill="#FFFFFF" font-family="'TrajanPro-Regular'" font-size="30px" rotate="68.3">E</tspan><tspan x="281.7" y="201" fill="#FFFFFF" font-family="'TrajanPro-Regular'" font-size="30px" rotate="73.1">S</tspan><tspan x="288.3" y="224.2" fill="#FFFFFF" font-family="'TrajanPro-Regular'" font-size="30px" rotate="77.1"> </tspan><tspan x="291.9" y="240.6" fill="#FFFFFF" font-family="'TrajanPro-Regular'" font-size="30px" rotate="80.7">ยบ</tspan></text>
	<path id="XMLID_527_" fill="none" d="M-1825.4-159.1c77.9,143,25.1,322.1-117.9,400s-322.1,25.1-400-117.9
		c-77.9-143-25.1-322.1,117.9-400C-2072.4-360.3-1895.9-288.5-1825.4-159.1z"/>
	<text id="XMLID_526_" transform="matrix(0.347 0.9379 -0.9379 0.347 -1809.8794 -126.0393)"><tspan x="0" y="0" fill="#FFFFFF" font-family="'ModernSansLight'" font-size="30px"> </tspan><tspan x="19.9" y="0.2" fill="#FFFFFF" font-family="'TrajanPro-Regular'" font-size="30px" rotate="3.9">ยบ</tspan><tspan x="40" y="1.9" fill="#FFFFFF" font-family="'TrajanPro-Regular'" font-size="30px" rotate="7.5"> </tspan><tspan x="56.7" y="4.2" fill="#FFFFFF" font-family="'TrajanPro-Regular'" font-size="30px" rotate="11.5">S</tspan><tspan x="80.2" y="9.3" fill="#FFFFFF" font-family="'TrajanPro-Regular'" font-size="30px" rotate="16.5">P</tspan><tspan x="105.2" y="16.8" fill="#FFFFFF" font-family="'TrajanPro-Regular'" font-size="30px" rotate="22.3">O</tspan><tspan x="136.8" y="30.3" fill="#FFFFFF" font-family="'TrajanPro-Regular'" font-size="30px" rotate="28.5">R</tspan><tspan x="162.5" y="44.7" fill="#FFFFFF" font-family="'TrajanPro-Regular'" font-size="30px" rotate="34.1">T</tspan><tspan x="185.2" y="60.7" fill="#FFFFFF" font-family="'TrajanPro-Regular'" font-size="30px" rotate="38.3"> </tspan><tspan x="198.3" y="71.2" fill="#FFFFFF" font-family="'TrajanPro-Regular'" font-size="30px" rotate="41.9">ยบ</tspan><tspan x="213.1" y="84.9" fill="#FFFFFF" font-family="'TrajanPro-Regular'" font-size="30px" rotate="45.5"> </tspan><tspan x="224.8" y="97.1" fill="#FFFFFF" font-family="'TrajanPro-Regular'" font-size="30px" rotate="48.8"> </tspan><tspan x="235.8" y="109.8" fill="#FFFFFF" font-family="'TrajanPro-Regular'" font-size="30px" rotate="52"> </tspan><tspan x="246" y="123.3" fill="#FFFFFF" font-family="'TrajanPro-Regular'" font-size="30px" rotate="55.3"> </tspan><tspan x="255.4" y="137.2" fill="#FFFFFF" font-family="'TrajanPro-Regular'" font-size="30px" rotate="58.6"> </tspan></text>
	<path id="XMLID_66_" fill="#FFFFFF" d="M-2019.9,288.8"/>
	
		<ellipse id="XMLID_65_" transform="matrix(4.955782e-04 -1 1 4.955782e-04 -2105.2559 -2048.2996)" fill="none" cx="-2077.3" cy="29" rx="284.9" ry="284.3"/>
	<text id="XMLID_62_" transform="matrix(0.7858 0.6184 -0.6184 0.7858 -2263.0042 245.0493)"><tspan x="0" y="0" fill="#FFFFFF" font-family="'TrajanPro-Regular'" font-size="46px">S</tspan><tspan x="40.2" y="-1.1" fill="#FFFFFF" font-family="'TrajanPro-Regular'" font-size="46px" rotate="-7.5">I</tspan><tspan x="74.8" y="-5.9" fill="#FFFFFF" font-family="'TrajanPro-Regular'" font-size="46px" rotate="-16.9">N</tspan><tspan x="130.6" y="-24.8" fill="#FFFFFF" font-family="'TrajanPro-Regular'" font-size="46px" rotate="-28.2">C</tspan><tspan x="175.1" y="-50.6" fill="#FFFFFF" font-family="'TrajanPro-Regular'" font-size="46px" rotate="-37.2">E</tspan><tspan x="207.5" y="-77" fill="#FFFFFF" font-family="'TrajanPro-Regular'" font-size="46px" rotate="-44.7"> </tspan><tspan x="227.6" y="-97.6" fill="#FFFFFF" font-family="'TrajanPro-Regular'" font-size="46px" rotate="-51.7">2</tspan><tspan x="251.9" y="-130" fill="#FFFFFF" font-family="'TrajanPro-Regular'" font-size="46px" rotate="-59.9">0</tspan><tspan x="271.3" y="-165.5" fill="#FFFFFF" font-family="'TrajanPro-Regular'" font-size="46px" rotate="-68.1">0</tspan><tspan x="285.5" y="-203.4" fill="#FFFFFF" font-family="'TrajanPro-Regular'" font-size="46px" rotate="-76.2">2</tspan></text>
</g>
<g id="XMLID_155_">
	<path id="XMLID_118_" fill="#12352E" d="M556.1,647.8"/>
	<path id="XMLID_60_" fill="none" stroke="#000000" stroke-miterlimit="10" d="M556.1,647.8"/>
</g>
<g id="XMLID_431_">
	<g id="XMLID_455_">
		<path id="XMLID_457_" fill="#12352E" d="M-998.9,1207.8"/>
		<path id="XMLID_456_" fill="none" stroke="#000000" stroke-miterlimit="10" d="M-998.9,1207.8"/>
	</g>
	<g id="XMLID_432_">
		<g id="XMLID_454_">
		</g>
		<g id="XMLID_452_">
			<path id="XMLID_451_" d="M-1288.2,665.5c7.3-7.3,17.4-8.2,25-0.7c7.3,7.3,8.2,18.4,0.4,26.3c-8.9,8.9-19.5,5.7-25.4-0.1
				C-1293.6,685.8-1297.2,674.5-1288.2,665.5z M-1263.2,689c2.9-2.9,7.3-10.7-2.2-20.1c-7.8-7.8-16.8-7.2-21.9-2.1
				c-5.4,5.4-5.9,13.1,1.3,20.2C-1278.5,694.6-1269.1,694.9-1263.2,689z"/>
			<path id="XMLID_638_" d="M-1248.5,648.5c-4.1-5.9-4.9-6.9-5.8-8.1c-1-1.2-1.7-1.6-3.1-1c-0.4,0.1-1,0.6-1.4,0.8
				c-0.2,0.1-0.4,0.1-0.5,0c-0.2-0.2,0-0.4,0.4-0.7c1.7-1.2,4.1-2.7,4.4-2.9s2.5-1.9,3.6-2.7c0.4-0.3,0.7-0.3,0.8-0.1
				c0.1,0.2,0,0.3-0.1,0.4c-0.3,0.2-0.5,0.4-0.9,0.8c-0.9,0.9-0.7,1.8,0.1,3.1c0.8,1.3,1.5,2.3,5.7,8.2l3.7,5.3
				c3.8,5.4,6.7,6.9,9.4,7.3c3.1,0.4,5-0.4,7.1-1.9c2.3-1.6,3.8-4.3,4-6.9c0.2-3.4-1.6-6.9-4.3-10.7l-3.3-4.7
				c-4.1-5.9-4.9-6.9-5.8-8.1c-1-1.2-1.7-1.6-3.1-1c-0.4,0.1-1,0.6-1.4,0.8c-0.2,0.1-0.4,0.1-0.5,0c-0.2-0.2,0-0.4,0.4-0.7
				c1.7-1.2,3.8-2.5,4.1-2.7c0.3-0.2,1.9-1.5,3.1-2.3c0.4-0.3,0.7-0.3,0.8-0.1c0.1,0.1,0,0.3-0.1,0.4c-0.3,0.2-0.5,0.4-0.9,0.8
				c-0.9,0.9-0.7,1.8,0.1,3.1c0.8,1.3,1.5,2.3,5.7,8.2l2.8,4c2.9,4.1,5.6,8.9,4.5,13.7c-1,4.3-3.6,6.7-5.8,8.3
				c-1.3,0.9-5.2,3.4-9.6,2.8c-3.1-0.5-6.4-2.1-10.3-7.6L-1248.5,648.5z"/>
			<path id="XMLID_641_" d="M-1190.3,622.4c1.9,4,3.5,7.2,4.6,8.9c0.7,1.1,1.4,1.9,2.7,1.5c0.6-0.2,1.6-0.6,1.9-0.7
				c0.2-0.1,0.4,0,0.5,0.1c0.1,0.2,0,0.4-0.5,0.7c-2.3,1.1-4.9,2.3-5.1,2.4s-2.7,1.5-4,2.1c-0.5,0.2-0.7,0.2-0.8,0
				c-0.1-0.1,0-0.3,0.2-0.4c0.4-0.2,0.8-0.5,1.2-0.8c0.7-0.6,0.5-1.6,0.1-2.9c-0.6-1.8-2.2-5.1-4.2-9.1l-8.6-17.5l-6.1,3.1
				c-2.5,1.3-3.4,2.1-3.6,3.4c-0.1,0.9-0.1,1.3-0.1,1.6c0,0.4,0,0.5-0.2,0.6c-0.1,0.1-0.3,0-0.4-0.3c-0.2-0.4-1.1-4.4-1.2-4.7
				c0-0.3-0.1-0.9,0-1c0.3-0.1,0.9,0.1,2.1-0.4c1.3-0.5,2.9-1.1,3.4-1.4l15.5-7.6c1.3-0.6,2.2-1.2,2.8-1.6c0.6-0.4,0.9-0.7,1.1-0.8
				c0.2-0.1,0.3,0.1,0.4,0.4c0.6,1.2,1.9,4.1,2.1,4.6c0.2,0.4,0.1,0.6,0,0.7c-0.2,0.1-0.4,0-0.7-0.5l-0.3-0.4
				c-0.7-1.2-2.2-1.6-6.2,0.2l-5.2,2.5L-1190.3,622.4z"/>
			<path id="XMLID_644_" d="M-1161.3,601.3c-2.1-6.9-2.5-8.1-3-9.5c-0.5-1.5-1.1-2.1-2.7-1.9c-0.4,0-1.1,0.2-1.5,0.3
				c-0.2,0.1-0.4,0-0.4-0.2c-0.1-0.3,0.1-0.4,0.6-0.6c2-0.6,4.8-1.3,5-1.4c0.5-0.2,3.3-1.1,5.9-1.9c4.4-1.3,12.3-4.2,19.2-0.4
				c2.9,1.6,6.1,4.6,7.7,9.9c1.7,5.5,0.7,10.5-1,13.9c-1.3,2.6-4.3,6.8-11.8,9.1c-1.9,0.6-4.3,1.2-6.2,1.6c-2,0.5-3.5,0.8-3.7,0.9
				c-0.1,0-0.8,0.3-1.7,0.6c-0.9,0.3-1.9,0.7-2.5,0.9c-0.5,0.1-0.7,0.1-0.8-0.1c0-0.1,0-0.3,0.3-0.4c0.4-0.1,0.9-0.4,1.3-0.6
				c0.8-0.4,0.8-1.5,0.5-2.8c-0.3-1.9-1.4-5.4-2.7-9.6L-1161.3,601.3z M-1156.2,604.9c1.4,4.7,2.7,8.7,3,9.5c0.4,1.1,1,2.8,1.5,3.2
				c0.8,0.7,2.8,1.1,8-0.5c4.1-1.3,7.4-3.9,9.2-7.3c1.6-2.9,1.5-7.5,0.3-11.6c-1.7-5.6-5.2-8.5-7.6-9.8c-5.5-3.1-10.7-2.2-15.9-0.6
				c-0.9,0.3-2.5,0.9-2.8,1.2c-0.3,0.3-0.4,0.6-0.3,1c0.4,1.5,1.8,6,2.8,9.4L-1156.2,604.9z"/>
			<path id="XMLID_651_" d="M-1096,572.1c10.3-1.2,18.7,4.3,20,15c1.2,10.2-5,19.5-16,20.9c-12.5,1.5-18.9-7.6-19.9-15.8
				C-1112.8,584.7-1108.6,573.6-1096,572.1z M-1091,606.1c4.1-0.5,12.3-3.9,10.7-17.2c-1.3-11-8.7-16.1-15.9-15.2
				c-7.6,0.9-12.7,6.6-11.5,16.6C-1106.4,601-1099.2,607.1-1091,606.1z"/>
			<path id="XMLID_655_" d="M-1037.9,570.4c10.3,0.6,17.7,7.6,17,18.3c-0.6,10.3-8.4,18.4-19.4,17.7c-12.6-0.7-17.3-10.8-16.8-19.1
				C-1056.6,579.8-1050.6,569.6-1037.9,570.4z M-1038.9,604.7c4.1,0.2,12.8-1.7,13.6-15c0.6-11-5.7-17.3-13-17.8
				c-7.7-0.4-13.7,4.3-14.3,14.3C-1053.2,596.9-1047.2,604.2-1038.9,604.7z"/>
			<path id="XMLID_659_" d="M-997.8,589.3c1.5-7,1.8-8.3,2.1-9.7c0.2-1.5,0-2.3-1.4-3c-0.3-0.2-1.1-0.4-1.5-0.5
				c-0.2,0-0.3-0.2-0.3-0.3c0.1-0.3,0.3-0.3,0.8-0.2c2,0.4,4.8,1.2,5,1.3c0.5,0.1,3.9,0.7,5.3,1c2.8,0.6,5.8,1.6,7.8,3.8
				c0.9,1.1,2.4,3.7,1.8,6.8c-0.7,3.3-2.9,6.3-7.7,9.2c2.6,5.5,4.8,10.2,6.8,13.6c1.9,3.1,3.7,4,4.8,4.4c0.8,0.3,1.5,0.5,1.7,0.5
				c0.2,0.1,0.4,0.2,0.3,0.4c-0.1,0.3-0.3,0.3-1.2,0.1l-3.2-0.7c-2.5-0.6-3.6-1-4.6-1.9c-1.7-1.5-2.8-4-4.6-7.9
				c-1.3-2.9-2.8-6.4-3.4-7.7c-0.1-0.2-0.3-0.3-0.5-0.4l-5.5-1.3c-0.2,0-0.3,0.1-0.4,0.3l-0.2,1.1c-1,4.3-1.7,7.9-1.9,9.8
				c-0.2,1.3-0.1,2.4,1.2,2.9c0.6,0.2,1.6,0.5,2,0.6c0.3,0.1,0.3,0.2,0.3,0.3c0,0.2-0.3,0.3-0.8,0.2c-2.5-0.5-5.3-1.3-5.5-1.4
				c0,0-2.9-0.5-4.3-0.8c-0.5-0.1-0.7-0.2-0.6-0.5c0-0.1,0.2-0.2,0.4-0.2c0.4,0.1,1,0.1,1.4,0.1c0.9,0,1.4-0.9,1.8-2.2
				c0.6-1.8,1.4-5.4,2.4-9.7L-997.8,589.3z M-995,594c0,0.2,0,0.4,0.2,0.6c0.6,0.6,2.6,1.3,4.6,1.8c1.1,0.2,2.4,0.4,3.6-0.1
				c1.8-0.7,3.5-2.9,4.3-6.3c1.2-5.6-1-9.6-5.8-10.7c-1.3-0.3-2.6-0.4-3.1-0.4c-0.2,0-0.4,0.2-0.5,0.5L-995,594z"/>
			<path id="XMLID_662_" d="M-926.2,621.1c-2.9,6.1-4,8.9-3.6,10c0.4,1,1.3,1.8,4.5,3.3c2.2,1,4.1,1.9,5.6,1.1
				c0.9-0.4,1.8-1.3,2.3-2c0.2-0.3,0.4-0.5,0.6-0.4c0.2,0.1,0.2,0.3,0,0.7s-1.7,2.8-2.6,3.9c-0.7,0.8-0.9,0.9-3.2-0.1
				c-3-1.4-5.1-2.5-6.8-3.4c-1.7-0.9-3-1.6-4.2-2.1c-0.2-0.1-0.9-0.4-1.7-0.8c-0.9-0.4-1.8-0.7-2.4-1c-0.5-0.2-0.6-0.4-0.5-0.6
				c0.1-0.1,0.2-0.2,0.5-0.1c0.4,0.2,0.9,0.3,1.3,0.4c0.9,0.2,1.6-0.6,2.3-1.7c1-1.6,2.6-4.9,4.5-8.9l3.5-7.3c3.1-6.5,3.6-7.7,4.2-9
				c0.6-1.5,0.6-2.3-0.7-3.2c-0.3-0.2-1-0.6-1.4-0.8c-0.2-0.1-0.3-0.2-0.2-0.4c0.1-0.2,0.4-0.2,0.8,0c1.9,0.9,4.4,2.3,4.6,2.4
				c0.2,0.1,3.3,1.4,4.5,2c0.5,0.2,0.6,0.4,0.5,0.6c-0.1,0.2-0.3,0.2-0.5,0.1c-0.3-0.1-0.9-0.4-1.4-0.5c-1.3-0.4-2,0.2-2.7,1.6
				c-0.7,1.3-1.3,2.5-4.3,8.9L-926.2,621.1z"/>
			<path id="XMLID_665_" d="M-891.9,639.8c-2.3,3.7-4.3,6.8-5.1,8.6c-0.6,1.2-0.9,2.2,0.2,3.1c0.5,0.4,1.3,1,1.7,1.3
				c0.2,0.1,0.2,0.3,0.2,0.4c-0.1,0.2-0.4,0.2-0.8-0.1c-2.1-1.3-4.5-3-4.7-3.1s-2.7-1.5-3.9-2.3c-0.4-0.3-0.6-0.5-0.4-0.7
				c0.1-0.1,0.2-0.2,0.5,0c0.4,0.2,0.9,0.4,1.3,0.6c0.9,0.3,1.6-0.4,2.5-1.4c1.2-1.5,3.1-4.6,5.5-8.3l4.3-6.9
				c3.8-6.1,4.5-7.2,5.2-8.5c0.8-1.4,0.8-2.3,0-3c-0.4-0.4-0.8-0.7-1.1-0.9c-0.2-0.1-0.3-0.3-0.2-0.4c0.1-0.2,0.4-0.2,0.8,0.1
				c1.3,0.8,3.7,2.5,3.9,2.6c0.2,0.1,2.7,1.5,3.9,2.3c0.4,0.3,0.6,0.5,0.4,0.7c-0.1,0.2-0.3,0.1-0.5,0c-0.3-0.2-0.5-0.3-1-0.5
				c-1.2-0.5-1.9,0-2.8,1.3c-0.9,1.2-1.5,2.3-5.3,8.4L-891.9,639.8z"/>
			<path id="XMLID_667_" d="M-872,662c-2.4,2.9-2.8,4.2-2.1,5.2c0.5,0.7,1.3,1.4,1.6,1.7c0.2,0.1,0.2,0.3,0.1,0.4
				c-0.2,0.2-0.4,0.1-0.9-0.3c-2-1.7-3.3-3-3.6-3.3s-1.9-1.4-3.5-2.7c-0.4-0.3-0.5-0.5-0.3-0.8c0.1-0.1,0.3-0.1,0.5,0
				c0.3,0.2,0.9,0.7,1.6,1c1.1,0.5,2.1-0.4,4.8-3.6l17-20.1c1.2-1.4,1.6-1.7,1.9-1.4s0.2,1.5,0.3,2.2c0,1,0.5,11.1,1,21.5
				c0.3,6.7,0.5,14.2,0.7,16.3l14.7-18.2c1.9-2.3,2.3-3.3,1.4-4.5c-0.5-0.7-1.3-1.4-1.6-1.6c-0.2-0.2-0.2-0.3-0.1-0.5
				c0.2-0.2,0.5,0,0.9,0.3c1.6,1.3,3.2,2.9,3.6,3.2c0.4,0.3,1.6,1.2,3.1,2.4c0.4,0.3,0.6,0.6,0.4,0.8c-0.1,0.1-0.3,0.1-0.6-0.1
				c-0.2-0.1-0.4-0.4-0.9-0.6c-1.4-0.7-2.2-0.1-3.9,2l-17.5,20.5c-2,2.3-2.2,2.4-2.4,2.2c-0.3-0.2-0.4-1-0.7-4.4
				c-0.1-0.7-0.8-10.1-1.1-17.3c-0.4-7.8-0.6-15.6-0.7-17.8L-872,662z"/>
			<path id="XMLID_669_" d="M-821.6,688.5c5.4-4.7,6.4-5.5,7.5-6.6c1.1-1.1,1.4-1.9,0.7-3.2c-0.2-0.3-0.6-1-0.9-1.3
				c-0.1-0.1-0.2-0.3,0-0.5c0.2-0.2,0.4-0.1,0.8,0.3c0.7,0.8,1.5,1.7,2.1,2.5l1.2,1.5c0.2,0.2,6.2,7.2,6.9,7.9
				c0.6,0.6,1.2,1.1,1.5,1.3c0.2,0.1,0.4,0.2,0.6,0.3c0.1,0.1,0,0.3-0.2,0.4c-0.2,0.2-0.8,0.4-1.9,1.1c-0.4,0.3-2,1.5-2.4,1.8
				c-0.2,0.1-0.5,0.2-0.6,0.1c-0.2-0.2-0.1-0.4,0.2-0.7c0.2-0.2,0.8-0.8,1.1-1.3c0.3-0.7,0.5-1.4-1-3.5c-0.4-0.7-3.7-4.5-4-4.9
				c-0.1-0.1-0.3-0.1-0.5,0.1l-9.6,8.3c-0.2,0.2-0.3,0.3-0.2,0.5c0.4,0.5,4.1,4.7,4.9,5.5c0.8,0.8,1.3,1.2,1.9,1.2
				c0.5,0,0.8,0,0.9,0.1c0.1,0.1,0.1,0.2-0.1,0.4c-0.2,0.2-1,0.5-2.2,1.4c-0.8,0.5-2.1,1.6-2.3,1.8c-0.3,0.2-0.7,0.6-0.9,0.3
				c-0.2-0.2-0.1-0.4,0.1-0.5c0.3-0.3,0.7-0.6,1-1.1c0.4-0.6,0.7-1.4-0.3-2.9c-0.7-1-3.6-4.5-4.1-5.1c-0.2-0.2-0.3-0.2-0.5,0
				l-3.1,2.6c-1.2,1-5.2,4.5-5.9,5.1c-2.3,2.2-2.3,3.1,0.6,6.5c0.8,0.9,2.1,2.4,3.3,3s2.2,0.4,3.9-0.6c0.4-0.3,0.6-0.3,0.8-0.1
				c0.2,0.2-0.1,0.4-0.3,0.7c-0.3,0.2-2.9,2-3.8,2.5c-1.1,0.5-1.4,0.3-2.5-1.1c-2.3-2.6-3.8-4.6-5-6c-1.1-1.4-1.8-2.3-2.2-2.8
				c-0.1-0.1-0.6-0.7-1.2-1.4c-0.6-0.7-1.4-1.4-1.8-2c-0.3-0.4-0.4-0.6-0.2-0.8c0.1-0.1,0.3-0.1,0.4,0.1c0.3,0.3,0.7,0.7,1,0.9
				c0.7,0.6,1.7,0.1,2.8-0.6c1.6-1.1,4.4-3.5,7.7-6.4L-821.6,688.5z"/>
		</g>
		<g id="XMLID_449_">
			<path id="XMLID_448_" d="M-1306.1,1089.4c-2,1.4-5.5,1.6-7.9-1.7c-2-2.8-1.9-6,0.7-7.9c2.5-1.8,6-1.4,8.1,1.6
				C-1302.8,1084.8-1303.9,1087.9-1306.1,1089.4z M-1311.7,1081.4c-2.5,1.8-2.6,4.5-1.5,6.1c1,1.4,3.2,2.1,5.6,0.4
				c2.3-1.7,2.9-4.5,1.6-6.3C-1306.7,1080.7-1308.7,1079.2-1311.7,1081.4z"/>
			<path id="XMLID_599_" d="M-1335.8,1050.6c-1,0.1-1.3,0.1-1.3,0c-0.1-0.2,0-0.3,0.6-1.1c0.8-0.9,9.5-10.9,12.7-14.6
				c1.9-2.2,1.9-3.2,1.7-3.8c-0.1-0.5-0.3-0.9-0.4-1.1c-0.1-0.2-0.1-0.3,0-0.3c0.2-0.1,0.3,0.1,0.5,0.4c0.2,0.4,1.2,2.3,2.2,4.2
				c0.2,0.5,0.4,0.8,0.2,0.9c-0.1,0.1-0.2,0-0.3-0.1c-0.1-0.1-0.5-0.2-0.8,0.2l-5.2,5.9c-0.1,0.1-0.1,0.2,0,0.3l3,5.7
				c0.1,0.1,0.2,0.2,0.4,0.2l5.5-0.9c0.8-0.1,1.5-0.3,2-0.6c0.5-0.3,0.5-1,0.2-1.4l-0.1-0.3c-0.1-0.2-0.1-0.3,0-0.3
				c0.2-0.1,0.3,0,0.4,0.3c0.3,0.6,0.9,1.8,1,2.1c0.2,0.3,1,1.7,1.7,3c0.2,0.3,0.2,0.5,0.1,0.6c-0.1,0.1-0.2,0-0.3-0.2
				c-0.1-0.2-0.3-0.5-0.5-0.7c-0.8-1.1-2.1-1.1-3.7-0.9L-1335.8,1050.6z M-1326.7,1042.3c-0.1-0.1-0.2-0.1-0.2,0l-5.8,6.3
				c-0.3,0.3-0.3,0.5,0.2,0.4l8.4-1.5c0.2,0,0.2-0.1,0.1-0.2L-1326.7,1042.3z"/>
			<path id="XMLID_603_" d="M-1339.8,1024.5c-4.3,1.7-5.1,2.1-6,2.5c-0.9,0.4-1.3,0.8-1.1,1.8c0,0.2,0.2,0.7,0.3,1
				c0,0.1,0,0.2-0.1,0.3c-0.2,0.1-0.3,0-0.4-0.4c-0.5-1.3-1.1-3-1.2-3.2c-0.1-0.3-0.9-2.1-1.6-3.7c-1.1-2.8-3.4-7.8-1.3-12.4
				c0.9-2,2.7-4.2,6-5.5c3.5-1.4,6.8-1,9.1-0.1c1.7,0.7,4.7,2.4,6.6,7.1c0.5,1.2,1,2.7,1.4,3.9c0.4,1.3,0.7,2.2,0.8,2.4
				c0,0.1,0.2,0.5,0.5,1.1c0.2,0.6,0.5,1.2,0.7,1.6c0.1,0.3,0.1,0.5,0,0.5c-0.1,0-0.2,0-0.3-0.2c-0.1-0.2-0.3-0.6-0.4-0.8
				c-0.3-0.5-1-0.4-1.9-0.2c-1.2,0.3-3.4,1.2-6.1,2.3L-1339.8,1024.5z M-1337.7,1020.9c3-1.2,5.5-2.2,6-2.5c0.7-0.3,1.8-0.8,2-1.2
				c0.4-0.6,0.5-1.9-0.8-5.2c-1-2.6-2.9-4.6-5.2-5.6c-2-0.9-5-0.6-7.5,0.4c-3.5,1.4-5.2,3.9-5.9,5.5c-1.7,3.7-0.8,7.1,0.5,10.4
				c0.2,0.6,0.7,1.6,0.9,1.7c0.2,0.2,0.4,0.2,0.7,0.1c1-0.4,3.8-1.5,5.9-2.4L-1337.7,1020.9z"/>
			<path id="XMLID_608_" d="M-1343.9,981.8c-4.3-0.6-15.5-1.6-17.8-1.7c-0.5,0-0.9,0-1.2,0c-0.2,0.1-0.5,0.2-0.6,0.6
				c0,0.4,0.1,0.8,0.2,1.1c0,0.2,0.1,0.3-0.1,0.4c-0.2,0-0.3-0.1-0.4-0.6c-0.3-1.2-0.6-2.5-0.7-2.9c0-0.2-0.5-1.4-0.7-2.2
				c-0.1-0.3-0.1-0.5,0.1-0.5c0.1,0,0.2,0.1,0.3,0.3c0.1,0.2,0.2,0.8,0.7,1.3c0.4,0.3,1,0.6,3.2,0.8c0.9,0.1,4.8,0.6,8.7,1
				c4.7,0.6,8.2,1,9.8,1.3c2,0.3,2.5,0.3,2.5,0.6c0.1,0.3-0.3,0.6-1.5,1.5l-15.7,12c-1.4,1.1-1.6,1.6-1.6,2.7c0,0.5,0.1,1,0.2,1.1
				c0,0.2,0,0.3-0.1,0.3c-0.2,0-0.3-0.2-0.4-0.7c-0.4-1.4-0.8-3.1-0.9-3.4c-0.1-0.3-0.5-1.6-0.8-2.7c-0.1-0.5-0.2-0.8,0-0.8
				c0.1,0,0.2,0,0.3,0.2c0.1,0.3,0.3,0.8,0.5,1.1c0.2,0.3,0.5,0.3,0.7,0.2c0.4-0.1,1.2-0.7,2.2-1.5L-1343.9,981.8z"/>
			<path id="XMLID_611_" d="M-1359.3,961.3c-4.6,0.8-5.4,1-6.4,1.2c-1,0.2-1.4,0.6-1.5,1.6c0,0.2,0,0.8,0.1,1c0,0.1,0,0.2-0.1,0.3
				c-0.2,0-0.3-0.1-0.3-0.4c-0.1-0.7-0.3-1.5-0.4-2.1l-0.2-1.2c0-0.2-1.1-6.1-1.3-6.8c-0.1-0.6-0.3-1-0.4-1.2
				c-0.1-0.1-0.2-0.2-0.2-0.4c0-0.1,0.1-0.1,0.2-0.2c0.2,0,0.6,0,1.4,0c0.3,0,1.6-0.2,2-0.2c0.2,0,0.3,0,0.4,0.1
				c0,0.2-0.1,0.3-0.3,0.3c-0.2,0-0.7,0.2-1,0.4c-0.4,0.3-0.7,0.7-0.6,2.3c0,0.5,0.6,3.7,0.6,4.1c0,0.1,0.1,0.2,0.3,0.1l8.1-1.5
				c0.2,0,0.3-0.1,0.3-0.2c-0.1-0.4-0.7-4-0.9-4.7c-0.2-0.7-0.3-1.1-0.7-1.3c-0.3-0.2-0.4-0.3-0.5-0.4c0-0.1,0-0.2,0.2-0.2
				c0.2,0,0.7,0,1.7-0.1c0.6,0,1.7-0.2,1.9-0.2c0.2,0,0.6-0.1,0.6,0.1c0,0.1-0.1,0.2-0.2,0.3c-0.3,0.1-0.6,0.1-1,0.3
				c-0.4,0.2-0.8,0.6-0.8,1.7c0.1,0.8,0.5,3.7,0.6,4.2c0,0.1,0.1,0.2,0.2,0.2l2.6-0.5c1-0.2,4.4-0.8,5-0.9c2-0.5,2.3-1,1.8-3.9
				c-0.1-0.8-0.4-2.1-0.8-2.8s-1.1-1-2.4-0.9c-0.3,0-0.5,0-0.5-0.2c0-0.2,0.2-0.2,0.4-0.3c0.2,0,2.3-0.2,2.9-0.1
				c0.8,0.1,0.8,0.3,1.1,1.5c0.4,2.2,0.6,3.8,0.8,5c0.2,1.2,0.3,1.9,0.3,2.3c0,0.1,0.1,0.6,0.2,1.2c0.1,0.6,0.3,1.3,0.4,1.7
				c0.1,0.3,0,0.5-0.1,0.5c-0.1,0-0.2,0-0.2-0.2c0-0.3-0.2-0.6-0.3-0.9c-0.2-0.6-0.9-0.6-1.8-0.6c-1.3,0.1-3.6,0.5-6.4,1
				L-1359.3,961.3z"/>
			<path id="XMLID_614_" d="M-1353.6,933.4c2.4-0.3,3.2-0.6,3.4-1.4c0.1-0.6,0.1-1.2,0.1-1.5c0-0.1,0-0.2,0.2-0.3
				c0.2,0,0.3,0.2,0.3,0.5c0.1,1.7,0.1,2.9,0.2,3.2c0,0.3,0.2,1.5,0.3,2.9c0,0.3,0,0.5-0.2,0.5c-0.1,0-0.2-0.1-0.2-0.2
				c0-0.2-0.1-0.8-0.3-1.2c-0.3-0.7-1.1-0.8-3.9-0.6l-17.1,1.3c-1.2,0.1-1.5,0-1.5-0.2c0-0.2,0.6-0.8,0.9-1.1
				c0.5-0.5,4.9-5.3,9.5-10.3c2.9-3.2,6.3-6.8,7.2-7.8l-15.2,1.5c-1.9,0.2-2.6,0.4-2.7,1.4c-0.1,0.5-0.1,1.2,0,1.5
				c0,0.2-0.1,0.2-0.2,0.3c-0.2,0-0.2-0.2-0.3-0.6c-0.1-1.3-0.1-2.8-0.2-3.1c0-0.3-0.2-1.3-0.3-2.5c0-0.3,0-0.5,0.2-0.6
				c0.1,0,0.2,0.1,0.2,0.3c0,0.1,0,0.4,0.1,0.7c0.3,1,1,1,2.7,0.9l17.5-1.3c2-0.2,2.1-0.1,2.1,0.1c0,0.2-0.3,0.6-1.7,2.3
				c-0.3,0.4-4.3,5-7.5,8.4c-3.5,3.8-7,7.4-8,8.5L-1353.6,933.4z"/>
			<path id="XMLID_617_" d="M-1359.6,892.1c2.9,0.1,5.2,0.1,6.5,0c0.9-0.1,1.5-0.2,1.7-1.1c0.1-0.4,0.1-1.1,0.2-1.3
				c0-0.2,0.1-0.2,0.2-0.2c0.2,0,0.2,0.2,0.2,0.5c0,1.6-0.2,3.5-0.2,3.7c0,0.2,0,2,0,2.9c0,0.3-0.1,0.5-0.3,0.5
				c-0.1,0-0.2-0.1-0.2-0.2c0-0.3,0-0.6-0.1-0.9c-0.1-0.6-0.8-0.8-1.6-0.9c-1.3-0.2-3.6-0.2-6.5-0.3l-12.7-0.3l-0.1,4.4
				c0,1.9,0.2,2.6,0.9,3.1c0.5,0.3,0.7,0.4,0.9,0.5c0.2,0.1,0.3,0.2,0.3,0.3c0,0.1-0.1,0.1-0.3,0.1c-0.3,0-2.9-0.7-3.1-0.7
				c-0.2-0.1-0.6-0.2-0.6-0.3c0-0.2,0.3-0.5,0.4-1.3c0.1-0.9,0.2-2,0.2-2.4l0.3-11.2c0-1,0-1.7-0.1-2.1c0-0.5-0.1-0.7-0.1-0.8
				c0-0.1,0.2-0.1,0.4-0.1c0.9,0,3,0.2,3.3,0.2c0.3,0,0.4,0.1,0.4,0.2c0,0.2-0.1,0.2-0.5,0.2l-0.3,0c-0.9,0.1-1.6,0.8-1.8,3.6
				l-0.2,3.8L-1359.6,892.1z"/>
			<path id="XMLID_620_" d="M-1363.6,871.1c-4.6-0.6-5.5-0.7-6.4-0.8c-1-0.1-1.5,0.1-1.9,1.1c-0.1,0.2-0.2,0.7-0.2,1
				c0,0.1-0.1,0.2-0.2,0.2c-0.2,0-0.2-0.2-0.2-0.5c0.2-1.3,0.5-3.1,0.5-3.4c0-0.3,0.2-2.1,0.3-3c0-0.3,0.1-0.5,0.3-0.4
				c0.1,0,0.2,0.1,0.1,0.3c0,0.2,0,0.4,0,0.8c0,0.8,0.5,1.1,1.6,1.3c0.9,0.2,1.8,0.3,6.4,0.9l4.2,0.5c4.3,0.5,6.3-0.2,7.6-1.3
				c1.6-1.3,2-2.6,2.2-4.3c0.2-1.8-0.4-3.7-1.5-4.9c-1.5-1.6-4-2.3-7.1-2.7l-3.7-0.5c-4.6-0.6-5.5-0.7-6.4-0.8
				c-1-0.1-1.5,0.1-1.9,1.1c-0.1,0.2-0.2,0.7-0.2,1c0,0.1-0.1,0.2-0.2,0.2c-0.2,0-0.2-0.2-0.2-0.5c0.2-1.3,0.5-3,0.5-3.1
				c0-0.2,0.1-1.6,0.2-2.5c0-0.3,0.1-0.5,0.3-0.4c0.1,0,0.2,0.1,0.1,0.3c0,0.2,0,0.4,0,0.8c0.1,0.8,0.5,1.1,1.6,1.3
				c0.9,0.2,1.8,0.3,6.4,0.9l3.2,0.4c3.2,0.4,6.7,1.2,8.5,3.9c1.6,2.4,1.6,4.7,1.4,6.4c-0.1,1-0.6,4-2.9,5.9
				c-1.6,1.3-3.8,2.1-8.2,1.6L-1363.6,871.1z"/>
			<path id="XMLID_622_" d="M-1358.2,836.7c-4.6-1.1-5.4-1.3-6.3-1.4c-1-0.2-1.5-0.1-2,0.9c-0.1,0.2-0.3,0.7-0.3,1
				c0,0.1-0.1,0.2-0.2,0.2c-0.2,0-0.2-0.2-0.1-0.5c0.3-1.3,0.8-3.1,0.9-3.3c0.1-0.3,0.5-2.6,0.7-3.5c0.4-1.8,1.1-3.8,2.5-5
				c0.7-0.6,2.4-1.6,4.4-1.1c2.2,0.5,4.1,1.9,5.9,5.1c3.6-1.7,6.7-3,8.9-4.3c2-1.2,2.7-2.4,2.9-3.1c0.2-0.5,0.3-0.9,0.4-1.1
				c0-0.1,0.2-0.2,0.2-0.2c0.2,0,0.2,0.2,0.1,0.8l-0.5,2.1c-0.4,1.6-0.7,2.3-1.3,3c-1,1.1-2.6,1.8-5.2,2.9c-1.9,0.8-4.2,1.8-5.1,2.2
				c-0.1,0.1-0.2,0.2-0.3,0.3l-0.9,3.6c0,0.1,0,0.2,0.2,0.3l0.7,0.2c2.8,0.7,5.1,1.2,6.4,1.3c0.9,0.1,1.6,0.1,1.9-0.8
				c0.2-0.4,0.4-1,0.4-1.3c0-0.2,0.1-0.2,0.2-0.2c0.1,0,0.2,0.2,0.1,0.5c-0.4,1.6-0.9,3.4-0.9,3.6c0,0-0.4,1.9-0.6,2.8
				c-0.1,0.3-0.2,0.5-0.3,0.4c-0.1,0-0.2-0.1-0.1-0.3c0.1-0.3,0.1-0.6,0.1-0.9c0-0.6-0.6-0.9-1.4-1.2c-1.2-0.4-3.5-1-6.3-1.6
				L-1358.2,836.7z M-1355.1,834.9c0.1,0,0.3,0,0.4-0.1c0.4-0.4,0.9-1.7,1.2-3c0.2-0.7,0.3-1.5,0-2.3c-0.5-1.2-1.9-2.3-4.1-2.8
				c-3.7-0.9-6.3,0.6-7,3.7c-0.2,0.9-0.3,1.7-0.3,2c0,0.2,0.1,0.3,0.3,0.3L-1355.1,834.9z"/>
			<path id="XMLID_626_" d="M-1350.2,806.9c-4.4-1.5-5.2-1.8-6.2-2c-1-0.3-1.5-0.2-2,0.7c-0.1,0.2-0.3,0.7-0.4,0.9
				c0,0.1-0.1,0.2-0.2,0.2c-0.2-0.1-0.2-0.2-0.1-0.5c0.2-0.7,0.5-1.4,0.7-2l0.4-1.1c0.1-0.2,2-5.9,2.2-6.5c0.2-0.5,0.2-1,0.3-1.3
				c0-0.2-0.1-0.3,0-0.4c0-0.1,0.2-0.1,0.3,0c0.2,0.1,0.5,0.3,1.3,0.7c0.3,0.1,1.5,0.6,1.8,0.8c0.1,0.1,0.3,0.2,0.2,0.3
				c-0.1,0.2-0.2,0.2-0.4,0.1c-0.2-0.1-0.7-0.2-1.1-0.2c-0.5,0-1,0.2-1.6,1.7c-0.2,0.5-1.3,3.6-1.4,3.9c0,0.1,0,0.2,0.2,0.3l7.8,2.6
				c0.2,0.1,0.3,0.1,0.3-0.1c0.1-0.4,1.3-3.9,1.5-4.5c0.2-0.7,0.2-1.1,0-1.5c-0.2-0.3-0.3-0.4-0.2-0.6c0-0.1,0.1-0.1,0.3-0.1
				c0.2,0.1,0.6,0.4,1.5,0.8c0.5,0.2,1.6,0.7,1.8,0.7c0.2,0.1,0.5,0.2,0.5,0.4c0,0.1-0.2,0.2-0.3,0.1c-0.3-0.1-0.6-0.2-1-0.2
				c-0.4,0-1,0.1-1.5,1.1c-0.3,0.7-1.3,3.5-1.5,4c0,0.1,0,0.2,0.1,0.3l2.5,0.8c1,0.3,4.3,1.5,4.9,1.6c2,0.6,2.5,0.3,3.4-2.5
				c0.2-0.7,0.7-2,0.6-2.8c-0.1-0.8-0.5-1.4-1.6-2c-0.3-0.2-0.4-0.3-0.3-0.4c0.1-0.2,0.3-0.1,0.5,0c0.2,0.1,2.1,1,2.6,1.3
				c0.7,0.4,0.6,0.7,0.2,1.8c-0.7,2.1-1.3,3.7-1.7,4.8c-0.4,1.1-0.7,1.8-0.8,2.2c0,0.1-0.2,0.5-0.4,1.1c-0.2,0.6-0.4,1.2-0.5,1.7
				c-0.1,0.3-0.2,0.4-0.4,0.4c-0.1,0-0.2-0.1-0.1-0.3c0.1-0.3,0.1-0.6,0.2-0.9c0.1-0.6-0.5-1-1.3-1.3c-1.1-0.5-3.4-1.3-6.1-2.2
				L-1350.2,806.9z"/>
			<path id="XMLID_629_" d="M-1329.3,789.3c-0.4,0.3-0.5,0.3-1.2,0c-1.4-0.6-2.4-1.2-2.9-1.4c-0.3-0.2-0.4-0.3-0.3-0.4
				c0.1-0.2,0.2-0.2,0.4-0.1c0.2,0.1,0.6,0.3,1.1,0.4c2.2,0.5,3.8-1,4.6-2.9c1.1-2.6-0.2-4.8-2-5.5c-1.9-0.8-3.3-0.5-6.3,1l-1.6,0.8
				c-3.7,1.9-5.6,1.8-7.5,1c-2.9-1.3-4-4.3-2.5-7.8c0.5-1.1,0.9-1.8,1.4-2.4c0.3-0.5,0.5-0.7,0.6-0.9c0.1-0.2,0.2-0.3,0.3-0.2
				c0.1,0.1,1,0.6,2.9,1.4c0.4,0.2,0.6,0.3,0.6,0.5c-0.1,0.2-0.2,0.1-0.5,0.1c-0.3-0.1-1.2-0.3-1.5-0.2c-0.4,0-1.9,0.3-2.9,2.8
				c-0.8,1.9-0.3,3.9,1.7,4.8c1.6,0.7,2.9,0.4,6.1-1.4l0.9-0.5c4-2.1,6-2.2,8.2-1.2c1.1,0.5,3,1.8,3.6,4.3c0.3,1.5,0,3.2-0.6,4.7
				C-1327.5,787.2-1328.3,788.4-1329.3,789.3z"/>
			<path id="XMLID_632_" d="M-1327.4,746.2c-2.1-1.2-3.7-4.4-1.6-7.9c1.8-3,4.7-4.1,7.5-2.5c2.7,1.6,3.6,4.9,1.8,8.1
				C-1321.8,747.5-1325.1,747.6-1327.4,746.2z M-1322.2,737.8c-2.7-1.6-5.2-0.6-6.2,1.1c-0.9,1.5-0.7,3.8,1.9,5.3
				c2.4,1.5,5.2,0.9,6.4-1C-1319.7,742.2-1319,739.8-1322.2,737.8z"/>
		</g>
		<g id="XMLID_445_">
			<path id="XMLID_440_" d="M-764.8,808.6c2.3-0.7,5.8,0.3,6.9,4.2c1,3.3-0.2,6.3-3.3,7.2c-3,0.9-6.1-0.7-7.1-4.2
				C-769.5,811.8-767.4,809.3-764.8,808.6z M-762.2,818c3-0.9,4-3.4,3.5-5.3c-0.5-1.6-2.3-3-5.1-2.2c-2.7,0.8-4.2,3.2-3.6,5.4
				C-767.2,816.9-765.8,819.1-762.2,818z"/>
			<path id="XMLID_570_" d="M-772.1,852.1c0.1-0.4,0.3-0.5,1.1-0.6c1.5-0.2,2.7-0.3,3.2-0.3c0.3,0,0.5,0,0.5,0.2
				c0,0.2-0.1,0.2-0.3,0.3c-0.3,0-0.7,0.1-1.1,0.3c-2.1,0.8-2.7,2.9-2.4,4.8c0.4,2.8,2.7,3.9,4.6,3.7c2-0.3,3.1-1.3,4.8-4.2l0.9-1.5
				c2.1-3.5,3.8-4.5,5.9-4.8c3.2-0.5,5.7,1.6,6.3,5.3c0.2,1.2,0.2,2,0.1,2.8c0,0.6,0,0.8,0,1.1s0,0.3-0.2,0.3
				c-0.1,0-1.1,0.1-3.2,0.4c-0.5,0.1-0.7,0-0.7-0.1c0-0.2,0.1-0.2,0.4-0.3c0.4-0.1,1.1-0.4,1.4-0.6c0.3-0.2,1.4-1.2,1-3.9
				c-0.3-2-1.8-3.5-4-3.1c-1.7,0.3-2.6,1.2-4.4,4.4l-0.5,0.9c-2.2,3.9-3.9,5-6.3,5.4c-1.2,0.2-3.5,0-5.3-1.8
				c-1.1-1.1-1.7-2.7-1.9-4.3C-772.6,854.8-772.6,853.4-772.1,852.1z"/>
			<path id="XMLID_572_" d="M-755.4,877c4.7-0.3,5.5-0.3,6.5-0.5c1-0.1,1.5-0.4,1.6-1.4c0-0.2,0-0.8,0-1c0-0.1,0-0.2,0.2-0.3
				c0.2,0,0.2,0.1,0.3,0.5c0.1,1.3,0.1,3.1,0.1,3.4c0,0.7,0.2,2.4,0.3,3.8c0.2,3.7-0.9,5.2-1.4,5.7c-0.6,0.7-1.9,1.6-3.5,1.7
				c-4.3,0.3-7.3-2.7-7.6-6.9c0-0.1,0-0.5,0-0.6c0-0.2,0-0.3,0.2-0.3c0.2,0,0.3,0.2,0.3,0.8c0.2,2.9,2.5,5,5.2,4.9
				c1-0.1,3-0.3,4.5-2c1.5-1.7,1.3-3.5,1.2-4.2c0-0.5-0.1-1-0.3-1.3c-0.1-0.2-0.3-0.2-0.6-0.2l-12.3,0.8c-2.9,0.2-5.2,0.3-6.5,0.6
				c-0.9,0.1-1.5,0.4-1.6,1.3c0,0.4-0.1,1.1,0,1.4c0,0.2-0.1,0.2-0.2,0.2c-0.2,0-0.2-0.1-0.3-0.5c-0.1-1.6-0.1-3.5-0.1-3.7
				c0-0.1-0.2-2-0.3-2.9c0-0.3,0-0.5,0.2-0.5c0.1,0,0.2,0,0.2,0.2c0,0.3,0.1,0.6,0.2,0.9c0.2,0.6,0.8,0.7,1.7,0.8
				c1.3,0.1,3.6-0.1,6.5-0.3L-755.4,877z"/>
			<path id="XMLID_582_" d="M-745.7,913.3c-0.3,6.7-4.7,11.6-11.7,11.3c-6.7-0.3-12.1-5.2-11.8-12.4c0.3-8.2,6.8-11.4,12.2-11.2
				C-752.1,901.2-745.3,905-745.7,913.3z M-768.1,913c-0.1,2.7,1.2,8.3,10,8.7c7.2,0.3,11.2-3.9,11.4-8.7c0.2-5-3-8.9-9.5-9.1
				C-763.2,903.6-767.8,907.6-768.1,913z"/>
			<path id="XMLID_586_" d="M-756.9,939.3c4.6,0.7,5.5,0.8,6.4,0.9c1,0.1,1.5-0.1,1.9-1c0.1-0.2,0.2-0.7,0.2-1
				c0-0.1,0.1-0.2,0.2-0.2c0.2,0,0.2,0.2,0.2,0.5c-0.2,1.3-0.6,3.2-0.6,3.3c0,0.3-0.3,2.6-0.4,3.5c-0.3,1.9-0.7,3.8-2.1,5.2
				c-0.6,0.7-2.3,1.8-4.3,1.5c-2.2-0.3-4.3-1.6-6.3-4.6c-3.5,2-6.4,3.6-8.5,5.1c-1.9,1.4-2.4,2.6-2.7,3.3c-0.2,0.6-0.2,1-0.3,1.1
				c0,0.1-0.1,0.3-0.2,0.2c-0.2,0-0.2-0.2-0.1-0.7l0.3-2.1c0.2-1.7,0.5-2.4,1-3.1c0.9-1.2,2.5-2,4.9-3.4c1.8-1,4-2.1,4.9-2.6
				c0.1-0.1,0.2-0.2,0.2-0.4l0.6-3.6c0-0.1-0.1-0.2-0.2-0.2l-0.7-0.1c-2.8-0.4-5.2-0.8-6.5-0.8c-0.9,0-1.6,0-1.8,0.9
				c-0.1,0.4-0.3,1.1-0.3,1.3c0,0.2-0.1,0.2-0.2,0.2c-0.1,0-0.2-0.2-0.2-0.5c0.2-1.6,0.6-3.5,0.6-3.6c0,0,0.2-1.9,0.3-2.8
				c0-0.3,0.1-0.5,0.3-0.4c0.1,0,0.2,0.1,0.1,0.3c0,0.3,0,0.6,0,0.9c0,0.6,0.7,0.9,1.5,1.1c1.2,0.3,3.6,0.7,6.4,1.1L-756.9,939.3z
				 M-759.8,941.3c-0.1,0-0.3,0-0.4,0.2c-0.3,0.4-0.7,1.7-0.9,3c-0.1,0.7-0.1,1.6,0.2,2.3c0.6,1.1,2.1,2.1,4.3,2.5
				c3.7,0.5,6.2-1.1,6.7-4.3c0.1-0.9,0.2-1.7,0.1-2c0-0.2-0.1-0.3-0.3-0.3L-759.8,941.3z"/>
			<path id="XMLID_590_" d="M-768.6,973.2c-2.8-0.7-5.1-1.2-6.4-1.4c-0.9-0.1-1.5-0.1-1.9,0.8c-0.2,0.4-0.4,1-0.4,1.3
				c0,0.2-0.1,0.2-0.2,0.2c-0.1,0-0.2-0.2-0.1-0.5c0.4-1.6,0.9-3.4,1-3.6c0-0.1,0.4-2,0.6-2.9c0.1-0.3,0.2-0.5,0.3-0.4
				c0.1,0,0.2,0.1,0.1,0.3c-0.1,0.3-0.1,0.6-0.1,0.9c0,0.6,0.6,0.9,1.4,1.2c1.2,0.4,3.5,1,6.3,1.7l12.3,3l1-4.3
				c0.4-1.8,0.4-2.6-0.2-3.2c-0.4-0.4-0.6-0.6-0.8-0.7c-0.2-0.1-0.2-0.2-0.2-0.4c0-0.1,0.1-0.1,0.3-0.1c0.3,0.1,2.7,1.3,2.9,1.4
				c0.2,0.1,0.5,0.3,0.5,0.4c0,0.2-0.4,0.4-0.7,1.2c-0.3,0.8-0.6,1.9-0.7,2.3l-2.6,10.9c-0.2,0.9-0.3,1.6-0.4,2.1c0,0.5,0,0.7,0,0.9
				c0,0.1-0.2,0.1-0.4,0.1c-0.9-0.2-2.9-0.8-3.2-0.9c-0.3-0.1-0.4-0.2-0.3-0.3c0-0.1,0.1-0.2,0.6-0.1l0.3,0c0.9,0.1,1.7-0.4,2.5-3.2
				l0.9-3.7L-768.6,973.2z"/>
			<path id="XMLID_592_" d="M-770.3,1009.5c2.3,0.9,4.4,3.8,2.9,7.5c-1.3,3.2-4,4.8-7,3.7c-2.9-1.1-4.4-4.3-3.1-7.7
				C-776,1009.2-772.8,1008.5-770.3,1009.5z M-774,1018.6c2.9,1.1,5.2-0.2,6-2.1c0.6-1.6,0-3.8-2.7-4.9c-2.7-1-5.3,0-6.1,2.1
				C-777.3,1014.7-777.6,1017.2-774,1018.6z"/>
		</g>
		<path id="XMLID_441_" d="M-1056.3,1285c-51.8,0-102.1-10.2-149.4-30.2c-45.7-19.3-86.8-47-122-82.3s-62.9-76.3-82.3-122
			c-20-47.3-30.2-97.6-30.2-149.4c0-51.8,10.2-102.1,30.2-149.4c19.3-45.7,47-86.8,82.3-122s76.3-62.9,122-82.3
			c47.3-20,97.6-30.2,149.4-30.2c51.8,0,102.1,10.2,149.4,30.2c45.7,19.3,86.8,47,122,82.3s62.9,76.3,82.3,122
			c20,47.3,30.2,97.6,30.2,149.4c0,51.8-10.2,102.1-30.2,149.4c-19.3,45.7-47,86.8-82.3,122s-76.3,62.9-122,82.3
			C-954.2,1274.8-1004.5,1285-1056.3,1285z M-1056.3,523.1c-51,0-100.5,10-147.1,29.7c-45,19-85.4,46.3-120.1,81
			c-34.7,34.7-62,75.1-81,120.1c-19.7,46.6-29.7,96.1-29.7,147.1s10,100.5,29.7,147.1c19,45,46.3,85.4,81,120.1
			c34.7,34.7,75.1,62,120.1,81c46.6,19.7,96.1,29.7,147.1,29.7c51,0,100.5-10,147.1-29.7c45-19,85.4-46.3,120.1-81
			c34.7-34.7,62-75.1,81-120.1c19.7-46.6,29.7-96.1,29.7-147.1s-10-100.5-29.7-147.1c-19-45-46.3-85.4-81-120.1
			c-34.7-34.7-75.1-62-120.1-81C-955.8,533.1-1005.3,523.1-1056.3,523.1z"/>
		<g id="XMLID_439_">
			<path id="XMLID_487_" d="M-1237.3,1167.2c-0.3-0.7-0.2-0.8,0.5-1.8c1.4-1.8,2.7-3.1,3.2-3.7c0.3-0.4,0.6-0.5,0.7-0.4
				c0.2,0.2,0.2,0.3-0.1,0.6c-0.3,0.3-0.7,0.8-0.9,1.4c-1.6,3.1,0,6,2.5,7.9c3.5,2.7,7.1,1.6,9-0.8c2-2.5,2-4.8,1-9.8l-0.6-2.6
				c-1.4-6.2-0.5-9.1,1.5-11.5c3-3.9,8-4.2,12.6-0.6c1.4,1.1,2.3,2.1,3.1,3c0.6,0.7,0.8,0.9,1.1,1.2c0.3,0.2,0.3,0.4,0.2,0.5
				c-0.1,0.2-1.2,1.3-3.2,3.7c-0.5,0.6-0.7,0.8-0.9,0.6c-0.2-0.2-0.1-0.4,0.1-0.7c0.3-0.5,0.9-1.6,1-2.2c0.1-0.6,0.3-2.9-3-5.5
				c-2.5-2-5.7-1.9-7.7,0.7c-1.6,2.1-1.7,4.1-0.4,9.5l0.4,1.6c1.6,6.7,0.9,9.8-1.4,12.6c-1.2,1.5-3.9,3.8-7.8,3.6
				c-2.4-0.1-4.7-1.2-6.7-2.8C-1234.9,1170.6-1236.4,1169.1-1237.3,1167.2z"/>
			<path id="XMLID_489_" d="M-1192.4,1183c-2.3,3.8-4.1,6.9-4.9,8.7c-0.6,1.2-0.8,2.2,0.3,3.1c0.5,0.4,1.3,1,1.7,1.2
				c0.2,0.1,0.2,0.3,0.2,0.4c-0.1,0.2-0.4,0.2-0.8-0.1c-2.2-1.3-4.6-2.9-4.8-3c-0.2-0.1-2.8-1.5-3.9-2.2c-0.4-0.3-0.6-0.5-0.4-0.7
				c0.1-0.1,0.2-0.2,0.5,0c0.4,0.2,0.9,0.4,1.3,0.5c0.9,0.3,1.6-0.4,2.4-1.5c1.2-1.5,3-4.7,5.3-8.5l4.1-7c3.7-6.2,4.3-7.3,5-8.6
				c0.7-1.4,0.7-2.3,0-3c-0.4-0.4-0.9-0.7-1.1-0.9c-0.2-0.1-0.3-0.3-0.2-0.4c0.1-0.2,0.4-0.2,0.8,0.1c1.3,0.8,3.7,2.4,3.9,2.5
				c0.2,0.1,2.8,1.5,3.9,2.2c0.4,0.3,0.6,0.5,0.4,0.7c-0.1,0.2-0.3,0.1-0.5,0c-0.3-0.2-0.5-0.3-1.1-0.5c-1.2-0.4-1.9,0-2.8,1.4
				c-0.8,1.2-1.5,2.3-5.1,8.5L-1192.4,1183z"/>
			<path id="XMLID_498_" d="M-1168.2,1203.5c-1.3,3.5-1.3,4.8-0.3,5.6c0.7,0.5,1.7,0.9,2,1.1c0.2,0.1,0.3,0.2,0.2,0.4
				c-0.1,0.3-0.4,0.2-0.9,0c-2.4-0.9-4.1-1.7-4.5-1.9s-2.2-0.7-4.2-1.5c-0.4-0.2-0.7-0.3-0.6-0.6c0.1-0.2,0.2-0.2,0.4-0.1
				c0.3,0.1,1.1,0.4,1.9,0.4c1.2,0.1,1.9-1,3.4-4.9l9.6-24.6c0.6-1.7,1-2.1,1.3-2c0.3,0.1,0.7,1.4,1,2c0.4,1,4.1,10.4,7.9,20
				c2.5,6.2,5.1,13.2,5.9,15.2l8-22c1-2.8,1.1-3.9-0.1-4.7c-0.7-0.5-1.7-0.9-2-1c-0.3-0.1-0.3-0.3-0.2-0.4c0.1-0.3,0.5-0.2,1,0
				c1.9,0.7,3.9,1.7,4.4,1.9c0.5,0.2,1.9,0.6,3.7,1.3c0.5,0.2,0.8,0.3,0.7,0.6c-0.1,0.2-0.3,0.2-0.6,0.1c-0.2-0.1-0.5-0.2-1.1-0.3
				c-1.5-0.2-2.1,0.6-3.1,3.2l-9.8,25.1c-1.1,2.8-1.3,3-1.6,2.9c-0.3-0.1-0.7-0.8-2.1-4c-0.3-0.6-4-9.3-6.7-16
				c-2.9-7.3-5.6-14.6-6.4-16.7L-1168.2,1203.5z"/>
			<path id="XMLID_500_" d="M-1115.3,1222.6c-3.7-4.7-3.9-10.1-3.1-14.4c0.5-3,2.5-8.2,7.3-11.5c3.2-2.2,7.7-3.6,14.7-2.4
				c1.8,0.3,4.3,0.9,6.5,1.7c1.7,0.6,3.1,1.2,4.5,1.5c0.5,0.1,0.5,0.3,0.5,0.6c-0.1,0.4-0.3,0.9-0.7,2.5c-0.4,1.5-0.8,4-1,4.6
				s-0.3,0.9-0.6,0.9c-0.3-0.1-0.3-0.4-0.2-1c0.3-1.8-0.1-3.8-1.1-5c-1.3-1.6-4.6-3.5-8.6-4.2c-6-1.1-9.1,0.2-11,1.5
				c-3.9,2.6-5.4,6.5-6.2,11.1c-1.5,8.7,3.7,17.8,13.4,19.5c3.4,0.6,6.1,0.7,8.3-0.9c1.1-0.8,2.1-2.7,2.4-3.5
				c0.2-0.5,0.3-0.6,0.6-0.6c0.2,0,0.3,0.4,0.2,0.7c-0.1,0.3-1.3,4.2-2,5.6c-0.4,0.8-0.5,0.9-1.4,1.1c-1.9,0.4-5.4,0.1-8.3-0.4
				C-1108,1228.9-1112.3,1226.5-1115.3,1222.6z"/>
			<path id="XMLID_502_" d="M-1065,1211.4c0.1-7.2,0.1-8.5,0.1-9.9c-0.1-1.6-0.4-2.3-1.9-2.7c-0.4-0.1-1.1-0.2-1.6-0.2
				c-0.2,0-0.4-0.1-0.4-0.3c0-0.3,0.2-0.4,0.7-0.4c1.1,0,2.3,0,3.3,0.1l1.9,0.1c0.3,0,9.5,0.2,10.5,0.1c0.9,0,1.6-0.1,2-0.2
				c0.2,0,0.4-0.2,0.6-0.2c0.1,0,0.2,0.2,0.2,0.4c0,0.3-0.2,0.9-0.4,2.2c-0.1,0.5-0.2,2.5-0.3,3c-0.1,0.2-0.1,0.5-0.3,0.5
				c-0.3,0-0.4-0.2-0.4-0.6c0-0.3,0-1.1-0.2-1.7c-0.3-0.7-0.8-1.3-3.2-1.6c-0.8-0.1-5.8-0.2-6.3-0.2c-0.2,0-0.3,0.1-0.3,0.5
				l-0.2,12.7c0,0.3,0,0.5,0.3,0.5c0.6,0,6.3,0.1,7.3,0c1.1-0.1,1.8-0.2,2.2-0.6c0.3-0.4,0.5-0.6,0.7-0.6c0.1,0,0.2,0.1,0.2,0.4
				c0,0.3-0.2,1.1-0.4,2.6c-0.1,0.9-0.2,2.6-0.2,2.9c0,0.4,0,0.9-0.3,0.9c-0.2,0-0.3-0.2-0.3-0.4c0-0.5,0-0.9-0.2-1.5
				c-0.2-0.6-0.6-1.4-2.4-1.7c-1.2-0.2-5.8-0.3-6.6-0.3c-0.2,0-0.3,0.1-0.3,0.3l-0.1,4c0,1.6-0.2,6.9-0.1,7.9
				c0.1,3.2,0.8,3.8,5.3,3.9c1.2,0,3.2,0.1,4.4-0.4c1.2-0.5,1.8-1.4,2.1-3.3c0.1-0.5,0.2-0.7,0.4-0.7c0.3,0,0.3,0.4,0.3,0.7
				c0,0.4-0.4,3.5-0.7,4.5c-0.3,1.2-0.7,1.2-2.5,1.2c-3.4-0.1-6-0.2-7.8-0.3c-1.8-0.1-2.9-0.2-3.6-0.2c-0.1,0-0.9,0-1.8,0
				c-0.9,0-2,0.1-2.7,0c-0.5,0-0.7-0.1-0.7-0.4c0-0.1,0.1-0.3,0.4-0.3c0.4,0,1-0.1,1.4-0.2c0.9-0.2,1.2-1.2,1.4-2.5
				c0.3-1.9,0.3-5.6,0.4-10L-1065,1211.4z"/>
			<path id="XMLID_504_" d="M-1001,1227.7c-0.3,0.1-0.7-0.1-0.8-0.5c-0.1-0.4,0.3-0.9,0.5-1.3c7.1-10.1,12.3-17.9,10.2-26.4
				c-1.5-6.4-6.1-7.3-9.1-6.6c-2.1,0.5-3.4,1.3-4.4,2.8c-0.8,1.3-0.9,3-0.5,4.7c0.1,0.4,0,0.7-0.2,0.8c-0.2,0-0.4-0.1-0.5-0.5
				s-1.2-4.1-1.6-5.4c-0.1-0.3-0.1-0.4,0.3-0.8c1.5-1.2,3.9-2.6,7.5-3.4c6.8-1.6,11.1,1.9,12.3,6.6c2.2,9.3-5.9,19.9-10.3,26
				c-0.2,0.2-0.1,0.3,0.2,0.3l3.3-0.8c0.8-0.2,6-1.5,7.6-2c3.2-1.1,4.2-3,4.2-5.5c0-0.5,0.1-0.7,0.4-0.8c0.2-0.1,0.4,0.3,0.4,0.6
				c0.2,0.9,0.1,4.6,0.1,6.2c-0.1,1.3-0.7,1.6-2.6,2L-1001,1227.7z"/>
			<path id="XMLID_509_" d="M-964.5,1180.1c7.8-3.1,14.1,6.2,16.3,11.8c3.9,9.8,3.2,19.3-3.7,22c-6.7,2.6-13.3-4.1-16.3-11.8
				C-972.2,1192-971.3,1182.8-964.5,1180.1z M-951.6,1211.9c3.8-1.5,4.1-8.5,0.8-16.9c-3.2-8.1-9-15-13.8-13.1
				c-4,1.6-4.1,8.3-0.7,17C-962.4,1206.4-956.9,1214-951.6,1211.9z"/>
			<path id="XMLID_535_" d="M-932.6,1164.6c7.3-4.2,14.9,4.1,17.9,9.3c5.3,9.2,5.9,18.6-0.6,22.3c-6.2,3.6-13.7-2.2-17.8-9.4
				C-938.5,1177.5-939,1168.3-932.6,1164.6z M-915.4,1194.4c3.6-2.1,2.9-9-1.6-16.8c-4.3-7.6-11.1-13.5-15.6-11
				c-3.7,2.1-2.9,8.8,1.7,16.9C-926.8,1190.5-920.3,1197.2-915.4,1194.4z"/>
			<path id="XMLID_565_" d="M-890.4,1179.6c-0.3,0.2-0.7,0.2-0.9-0.1c-0.2-0.3-0.1-0.9,0-1.4c2.2-12.1,3.7-21.3-1.7-28.3
				c-4-5.2-8.6-4.1-11-2.2c-1.7,1.4-2.5,2.6-2.8,4.4c-0.2,1.5,0.4,3.1,1.5,4.5c0.3,0.3,0.3,0.7,0.1,0.8c-0.1,0.1-0.4,0.1-0.7-0.2
				c-0.3-0.3-2.8-3.2-3.7-4.3c-0.2-0.2-0.2-0.4-0.1-0.8c0.9-1.7,2.5-4,5.4-6.2c5.5-4.3,10.9-2.9,13.9,0.9c5.9,7.5,3,20.6,1.5,27.9
				c-0.1,0.3,0.1,0.3,0.3,0.2l2.6-2.1c0.6-0.5,4.9-3.9,6.1-5c2.4-2.3,2.6-4.5,1.5-6.8c-0.2-0.5-0.2-0.7,0-0.9
				c0.2-0.1,0.5,0.2,0.6,0.4c0.5,0.7,2,4.1,2.6,5.6c0.5,1.2,0,1.7-1.5,2.9L-890.4,1179.6z"/>
		</g>
		<g id="XMLID_433_">
			<g id="XMLID_435_">
				
					<image overflow="visible" width="166" height="156" id="XMLID_438_" xlink:href="55495902AE9FEC9C.png"  transform="matrix(1 0 0 1 -1011.1531 747)">
				</image>
				
					<image overflow="visible" width="123" height="189" id="XMLID_437_" xlink:href="55495902AE9FEC9D.png"  transform="matrix(1 0 0 1 -1121.1532 703)">
				</image>
				
					<image overflow="visible" width="184" height="251" id="XMLID_436_" xlink:href="55495902AE9FEC9B.png"  transform="matrix(1 0 0 1 -1328.1532 818)">
				</image>
			</g>
			<polygon id="XMLID_434_" points="-1291.7,1033.4 -1297.3,1031.1 -1220.7,847.3 -1116.6,960.3 -1059.5,731.9 -974.1,858.7 
				-908.4,777.8 -804.2,952 -809.4,955 -909.1,788.2 -974.6,868.8 -1057,746.4 -1113.5,972.6 -1218.8,858.3 			"/>
		</g>
	</g>
</g>
<g id="XMLID_61_">
	<g id="XMLID_399_">
		<circle id="XMLID_120_" cx="-2118.3" cy="902.1" r="380.9"/>
		<path id="XMLID_133_" fill="#FFFFFF" d="M-2118.3,1286c-51.8,0-102.1-10.2-149.4-30.2c-45.7-19.3-86.8-47-122-82.3
			c-35.3-35.3-62.9-76.3-82.3-122c-20-47.3-30.2-97.6-30.2-149.4c0-51.8,10.2-102.1,30.2-149.4c19.3-45.7,47-86.8,82.3-122
			c35.3-35.3,76.3-62.9,122-82.3c47.3-20,97.6-30.2,149.4-30.2s102.1,10.2,149.4,30.2c45.7,19.3,86.8,47,122,82.3
			s62.9,76.3,82.3,122c20,47.3,30.2,97.6,30.2,149.4c0,51.8-10.2,102.1-30.2,149.4c-19.3,45.7-47,86.8-82.3,122s-76.3,62.9-122,82.3
			C-2016.2,1275.8-2066.5,1286-2118.3,1286z M-2118.3,524.1c-51,0-100.5,10-147.1,29.7c-45,19-85.4,46.3-120.1,81
			c-34.7,34.7-62,75.1-81,120.1c-19.7,46.6-29.7,96.1-29.7,147.1s10,100.5,29.7,147.1c19,45,46.3,85.4,81,120.1
			c34.7,34.7,75.1,62,120.1,81c46.6,19.7,96.1,29.7,147.1,29.7s100.5-10,147.1-29.7c45-19,85.4-46.3,120.1-81
			c34.7-34.7,62-75.1,81-120.1c19.7-46.6,29.7-96.1,29.7-147.1s-10-100.5-29.7-147.1c-19-45-46.3-85.4-81-120.1
			c-34.7-34.7-75.1-62-120.1-81C-2017.8,534.1-2067.3,524.1-2118.3,524.1z"/>
	</g>
	<path id="XMLID_524_" fill="none" d="M-2255.8,639.9c144.2-75.7,322.4-20.1,398.1,124.1c75.7,144.2,20.1,322.4-124.1,398.1
		c-144.2,75.7-322.4,20.1-398.1-124.1C-2460.9,883.7-2386.3,708.4-2255.8,639.9z"/>
	<text id="XMLID_523_" transform="matrix(0.7036 -0.7106 0.7106 0.7036 -2340.5269 706.8308)"><tspan x="0" y="0" fill="#FFFFFF" font-family="'TrajanPro-Regular'" font-size="46px">O</tspan><tspan x="52.1" y="1" fill="#FFFFFF" font-family="'TrajanPro-Regular'" font-size="46px" rotate="9.9">U</tspan><tspan x="99.4" y="10.3" fill="#FFFFFF" font-family="'TrajanPro-Regular'" font-size="46px" rotate="19.1">T</tspan><tspan x="138.9" y="24.4" fill="#FFFFFF" font-family="'TrajanPro-Regular'" font-size="46px" rotate="28.2">D</tspan><tspan x="184.4" y="49.7" fill="#FFFFFF" font-family="'TrajanPro-Regular'" font-size="46px" rotate="38.3">O</tspan><tspan x="224.7" y="82.7" fill="#FFFFFF" font-family="'TrajanPro-Regular'" font-size="46px" rotate="48.5">O</tspan><tspan x="258.4" y="122.5" fill="#FFFFFF" font-family="'TrajanPro-Regular'" font-size="46px" rotate="57.9">R</tspan><tspan x="281.3" y="161.2" fill="#FFFFFF" font-family="'TrajanPro-Regular'" font-size="46px" rotate="64.7"> </tspan><tspan x="292" y="184.3" fill="#FFFFFF" font-family="'TrajanPro-Regular'" font-size="46px" rotate="70.8">L</tspan><tspan x="303.6" y="220.1" fill="#FFFFFF" font-family="'TrajanPro-Regular'" font-size="46px" rotate="77.4">I</tspan><tspan x="310.4" y="249.8" fill="#FFFFFF" font-family="'TrajanPro-Regular'" font-size="46px" rotate="85.6">N</tspan><tspan x="313.1" y="303.4" fill="#FFFFFF" font-family="'TrajanPro-Regular'" font-size="46px" rotate="94.6">E</tspan><tspan x="309.2" y="341.7" fill="#FFFFFF" font-family="'ModernSansLight'" font-size="42px" rotate="101.1"> </tspan><tspan x="303.4" y="368.7" fill="#FFFFFF" font-family="'TrajanPro-Regular'" font-size="42px" rotate="106"> </tspan><tspan x="296.6" y="391.1" fill="#FFFFFF" font-family="'TrajanPro-Regular'" font-size="42px" rotate="110.5"> </tspan><tspan x="288.1" y="412.8" fill="#FFFFFF" font-family="'TrajanPro-Regular'" font-size="42px" rotate="115"> </tspan><tspan x="277.9" y="433.8" fill="#FFFFFF" font-family="'TrajanPro-Regular'" font-size="42px" rotate="119.5"> </tspan><tspan x="266" y="453.9" fill="#FFFFFF" font-family="'TrajanPro-Regular'" font-size="42px" rotate="124.1"> </tspan></text>
	<path id="XMLID_522_" fill="none" d="M-2349.7,1085.4c-100.9-127.8-79-313.2,48.8-414.1s313.2-79,414.1,48.8
		c100.9,127.8,79,313.2-48.8,414.1C-2072.4,1242.1-2258.4,1201.1-2349.7,1085.4z"/>
	<text id="XMLID_521_" transform="matrix(-0.7638 -0.6454 0.6454 -0.7638 -2306.9143 1128.8798)"><tspan x="0" y="0" fill="#FFFFFF" font-family="'TrajanPro-Regular'" font-size="30px"> </tspan><tspan x="16.8" y="0.2" fill="#FFFFFF" font-family="'TrajanPro-Regular'" font-size="30px" rotate="3.4"> </tspan><tspan x="33.6" y="1.4" fill="#FFFFFF" font-family="'TrajanPro-Regular'" font-size="30px" rotate="6.8"> </tspan><tspan x="50.3" y="3.6" fill="#FFFFFF" font-family="'TrajanPro-Regular'" font-size="30px" rotate="10.3"> </tspan><tspan x="66.7" y="6.8" fill="#FFFFFF" font-family="'TrajanPro-Regular'" font-size="30px" rotate="13.9">ยบ</tspan><tspan x="86.3" y="11.9" fill="#FFFFFF" font-family="'TrajanPro-Regular'" font-size="30px" rotate="17.5"> </tspan><tspan x="102.2" y="17" fill="#FFFFFF" font-family="'TrajanPro-Regular'" font-size="30px" rotate="21.9">A</tspan><tspan x="128" y="27.5" fill="#FFFFFF" font-family="'TrajanPro-Regular'" font-size="30px" rotate="27.9">D</tspan><tspan x="158.1" y="44.1" fill="#FFFFFF" font-family="'TrajanPro-Regular'" font-size="30px" rotate="34.1">V</tspan><tspan x="182" y="60.8" fill="#FFFFFF" font-family="'TrajanPro-Regular'" font-size="30px" rotate="39.4">E</tspan><tspan x="201.3" y="76.8" fill="#FFFFFF" font-family="'TrajanPro-Regular'" font-size="30px" rotate="45.3">N</tspan><tspan x="225.7" y="102.3" fill="#FFFFFF" font-family="'TrajanPro-Regular'" font-size="30px" rotate="51.4">T</tspan><tspan x="242.8" y="124" fill="#FFFFFF" font-family="'TrajanPro-Regular'" font-size="30px" rotate="57.1">U</tspan><tspan x="259.7" y="150.9" fill="#FFFFFF" font-family="'TrajanPro-Regular'" font-size="30px" rotate="63">R</tspan><tspan x="272.7" y="177.4" fill="#FFFFFF" font-family="'TrajanPro-Regular'" font-size="30px" rotate="68.3">E</tspan><tspan x="281.7" y="201" fill="#FFFFFF" font-family="'TrajanPro-Regular'" font-size="30px" rotate="73.1">S</tspan><tspan x="288.3" y="224.2" fill="#FFFFFF" font-family="'TrajanPro-Regular'" font-size="30px" rotate="77.1"> </tspan><tspan x="291.9" y="240.6" fill="#FFFFFF" font-family="'TrajanPro-Regular'" font-size="30px" rotate="80.7">ยบ</tspan></text>
	<path id="XMLID_520_" fill="none" d="M-1866.4,760.9c77.9,143,25.1,322.1-117.9,400s-322.1,25.1-400-117.9
		c-77.9-143-25.1-322.1,117.9-400C-2113.4,559.7-1936.9,631.5-1866.4,760.9z"/>
	<text id="XMLID_519_" transform="matrix(0.347 0.9379 -0.9379 0.347 -1850.8794 793.9606)"><tspan x="0" y="0" fill="#FFFFFF" font-family="'ModernSansLight'" font-size="30px"> </tspan><tspan x="19.9" y="0.2" fill="#FFFFFF" font-family="'TrajanPro-Regular'" font-size="30px" rotate="3.9">ยบ</tspan><tspan x="40" y="1.9" fill="#FFFFFF" font-family="'TrajanPro-Regular'" font-size="30px" rotate="7.5"> </tspan><tspan x="56.7" y="4.2" fill="#FFFFFF" font-family="'TrajanPro-Regular'" font-size="30px" rotate="11.5">S</tspan><tspan x="80.2" y="9.3" fill="#FFFFFF" font-family="'TrajanPro-Regular'" font-size="30px" rotate="16.5">P</tspan><tspan x="105.2" y="16.8" fill="#FFFFFF" font-family="'TrajanPro-Regular'" font-size="30px" rotate="22.3">O</tspan><tspan x="136.8" y="30.3" fill="#FFFFFF" font-family="'TrajanPro-Regular'" font-size="30px" rotate="28.5">R</tspan><tspan x="162.5" y="44.7" fill="#FFFFFF" font-family="'TrajanPro-Regular'" font-size="30px" rotate="34.1">T</tspan><tspan x="185.2" y="60.7" fill="#FFFFFF" font-family="'TrajanPro-Regular'" font-size="30px" rotate="38.3"> </tspan><tspan x="198.3" y="71.2" fill="#FFFFFF" font-family="'TrajanPro-Regular'" font-size="30px" rotate="41.9">ยบ</tspan><tspan x="213.1" y="84.9" fill="#FFFFFF" font-family="'TrajanPro-Regular'" font-size="30px" rotate="45.5"> </tspan><tspan x="224.8" y="97.1" fill="#FFFFFF" font-family="'TrajanPro-Regular'" font-size="30px" rotate="48.8"> </tspan><tspan x="235.8" y="109.8" fill="#FFFFFF" font-family="'TrajanPro-Regular'" font-size="30px" rotate="52"> </tspan><tspan x="246" y="123.3" fill="#FFFFFF" font-family="'TrajanPro-Regular'" font-size="30px" rotate="55.3"> </tspan><tspan x="255.4" y="137.2" fill="#FFFFFF" font-family="'TrajanPro-Regular'" font-size="30px" rotate="58.6"> </tspan></text>
	
		<ellipse id="XMLID_512_" transform="matrix(4.955782e-04 -1 1 4.955782e-04 -3066.2356 -1169.7555)" fill="none" cx="-2118.3" cy="949" rx="284.9" ry="284.3"/>
	<text id="XMLID_511_" transform="matrix(0.7858 0.6184 -0.6184 0.7858 -2304.0042 1165.0502)"><tspan x="0" y="0" fill="#FFFFFF" font-family="'TrajanPro-Regular'" font-size="46px">S</tspan><tspan x="40.2" y="-1.1" fill="#FFFFFF" font-family="'TrajanPro-Regular'" font-size="46px" rotate="-7.5">I</tspan><tspan x="74.8" y="-5.9" fill="#FFFFFF" font-family="'TrajanPro-Regular'" font-size="46px" rotate="-16.9">N</tspan><tspan x="130.6" y="-24.8" fill="#FFFFFF" font-family="'TrajanPro-Regular'" font-size="46px" rotate="-28.2">C</tspan><tspan x="175.1" y="-50.6" fill="#FFFFFF" font-family="'TrajanPro-Regular'" font-size="46px" rotate="-37.2">E</tspan><tspan x="207.5" y="-77" fill="#FFFFFF" font-family="'TrajanPro-Regular'" font-size="46px" rotate="-44.7"> </tspan><tspan x="227.6" y="-97.6" fill="#FFFFFF" font-family="'TrajanPro-Regular'" font-size="46px" rotate="-51.7">2</tspan><tspan x="251.9" y="-130" fill="#FFFFFF" font-family="'TrajanPro-Regular'" font-size="46px" rotate="-59.9">0</tspan><tspan x="271.3" y="-165.5" fill="#FFFFFF" font-family="'TrajanPro-Regular'" font-size="46px" rotate="-68.1">0</tspan><tspan x="285.5" y="-203.4" fill="#FFFFFF" font-family="'TrajanPro-Regular'" font-size="46px" rotate="-76.2">2</tspan></text>
	
		<image overflow="visible" width="166" height="156" id="XMLID_394_" xlink:href="55495902AE9FECA4.png"  transform="matrix(1 0 0 1 -2073.1531 748)">
	</image>
	
		<image overflow="visible" width="123" height="189" id="XMLID_391_" xlink:href="55495902AE9FECA7.png"  transform="matrix(1 0 0 1 -2183.1531 704)">
	</image>
	
		<image overflow="visible" width="184" height="251" id="XMLID_297_" xlink:href="55495902AE9FECA5.png"  transform="matrix(1 0 0 1 -2390.1531 819)">
	</image>
	<polygon id="XMLID_132_" fill="#FFFFFF" points="-2356.1,1033.4 -2357,1033 -2281.9,852.9 -2177.3,966.4 -2120.5,738.9 
		-2036.3,863.9 -1970.7,783.2 -1868.4,954.3 -1869.3,954.8 -1970.8,784.9 -2036.4,865.6 -2120.1,741.4 -2176.8,968.5 -2281.6,854.7 
			"/>
</g>
<g id="XMLID_59_">
	<line id="XMLID_157_" fill="#12352E" stroke="#000000" stroke-miterlimit="10" x1="-1168.7" y1="-143" x2="-1168.7" y2="188"/>
	<line id="XMLID_152_" fill="#12352E" stroke="#000000" stroke-miterlimit="10" x1="-1168.4" y1="-143.6" x2="-1243.6" y2="-68.4"/>
	<line id="XMLID_151_" fill="#12352E" stroke="#000000" stroke-miterlimit="10" x1="-1168.2" y1="-86.2" x2="-1270" y2="15.6"/>
	<line id="XMLID_150_" fill="#12352E" stroke="#000000" stroke-miterlimit="10" x1="-1168.2" y1="-26.7" x2="-1275.3" y2="80.4"/>
	<line id="XMLID_149_" fill="#12352E" stroke="#000000" stroke-miterlimit="10" x1="-1168.2" y1="26.8" x2="-1216.2" y2="74.8"/>
	<line id="XMLID_148_" fill="#12352E" stroke="#000000" stroke-miterlimit="10" x1="-1169.1" y1="-143.6" x2="-1093.9" y2="-68.4"/>
	<line id="XMLID_147_" fill="#12352E" stroke="#000000" stroke-miterlimit="10" x1="-1168.3" y1="-86.2" x2="-1066.5" y2="15.6"/>
	<line id="XMLID_146_" fill="#12352E" stroke="#000000" stroke-miterlimit="10" x1="-1168.3" y1="-26.7" x2="-1061.2" y2="80.4"/>
	<line id="XMLID_145_" fill="#12352E" stroke="#000000" stroke-miterlimit="10" x1="-1168.3" y1="26.8" x2="-1120.4" y2="74.8"/>
	<g id="XMLID_130_">
		<line id="XMLID_143_" fill="#12352E" stroke="#000000" stroke-miterlimit="10" x1="-998.2" y1="-48" x2="-998.5" y2="154.9"/>
		<path id="XMLID_142_" fill="#12352E" stroke="#000000" stroke-miterlimit="10" d="M-998.5,154.9"/>
		<path id="XMLID_125_" fill="#12352E" stroke="#000000" stroke-miterlimit="10" d="M-998.5-48.9"/>
		<line id="XMLID_138_" fill="#12352E" stroke="#000000" stroke-miterlimit="10" x1="-997.9" y1="-48.3" x2="-1045.9" y2="-0.2"/>
		<line id="XMLID_137_" fill="#12352E" stroke="#000000" stroke-miterlimit="10" x1="-998.2" y1="-12.2" x2="-1063.1" y2="52.7"/>
		<line id="XMLID_136_" fill="#12352E" stroke="#000000" stroke-miterlimit="10" x1="-998.5" y1="26.1" x2="-1066.8" y2="94.3"/>
		<line id="XMLID_135_" fill="#12352E" stroke="#000000" stroke-miterlimit="10" x1="-998.5" y1="60.2" x2="-1029.1" y2="90.8"/>
		<line id="XMLID_134_" fill="#12352E" stroke="#000000" stroke-miterlimit="10" x1="-998.4" y1="-48.5" x2="-950.4" y2="-0.4"/>
		<line id="XMLID_133_" fill="#12352E" stroke="#000000" stroke-miterlimit="10" x1="-998.5" y1="-11.9" x2="-933.6" y2="53"/>
		<line id="XMLID_132_" fill="#12352E" stroke="#000000" stroke-miterlimit="10" x1="-998.5" y1="26.1" x2="-930.3" y2="94.3"/>
		<line id="XMLID_131_" fill="#12352E" stroke="#000000" stroke-miterlimit="10" x1="-998.5" y1="60.2" x2="-968" y2="90.8"/>
	</g>
	<line id="XMLID_129_" fill="#12352E" stroke="#000000" stroke-miterlimit="10" x1="-1323.7" y1="0" x2="-1323.7" y2="156"/>
	<line id="XMLID_124_" fill="#12352E" stroke="#000000" stroke-miterlimit="10" x1="-1323.5" y1="-0.2" x2="-1357.1" y2="32.6"/>
	<line id="XMLID_120_" fill="#12352E" stroke="#000000" stroke-miterlimit="10" x1="-1323.9" y1="25.7" x2="-1370.1" y2="71.9"/>
	<line id="XMLID_119_" fill="#12352E" stroke="#000000" stroke-miterlimit="10" x1="-1323.9" y1="52.7" x2="-1372.5" y2="101.4"/>
	<line id="XMLID_118_" fill="#12352E" stroke="#000000" stroke-miterlimit="10" x1="-1323.9" y1="77" x2="-1345.6" y2="98.8"/>
	<line id="XMLID_117_" fill="#12352E" stroke="#000000" stroke-miterlimit="10" x1="-1324" y1="-0.3" x2="-1290.8" y2="32.6"/>
	<line id="XMLID_116_" fill="#12352E" stroke="#000000" stroke-miterlimit="10" x1="-1323.9" y1="25.7" x2="-1277.6" y2="71.9"/>
	<line id="XMLID_61_" fill="#12352E" stroke="#000000" stroke-miterlimit="10" x1="-1323.9" y1="52.7" x2="-1275.2" y2="101.4"/>
	<line id="XMLID_60_" fill="#12352E" stroke="#000000" stroke-miterlimit="10" x1="-1323.9" y1="77" x2="-1302.1" y2="98.8"/>
	<path id="XMLID_43_" fill="none" d="M-1296.8-229.1c144.2-75.7,322.4-20.1,398.1,124.1s20.1,322.4-124.1,398.1
		s-322.4,20.1-398.1-124.1C-1501.9,14.7-1427.3-160.6-1296.8-229.1z"/>
	<text id="XMLID_122_" transform="matrix(0.7036 -0.7106 0.7106 0.7036 -1381.5269 -162.1692)"><tspan x="0" y="0" font-family="'TrajanPro-Regular'" font-size="46px">O</tspan><tspan x="52.1" y="1" font-family="'TrajanPro-Regular'" font-size="46px" rotate="9.9">U</tspan><tspan x="99.4" y="10.3" font-family="'TrajanPro-Regular'" font-size="46px" rotate="19.1">T</tspan><tspan x="138.9" y="24.4" font-family="'TrajanPro-Regular'" font-size="46px" rotate="28.2">D</tspan><tspan x="184.4" y="49.7" font-family="'TrajanPro-Regular'" font-size="46px" rotate="38.3">O</tspan><tspan x="224.7" y="82.7" font-family="'TrajanPro-Regular'" font-size="46px" rotate="48.5">O</tspan><tspan x="258.4" y="122.5" font-family="'TrajanPro-Regular'" font-size="46px" rotate="57.9">R</tspan><tspan x="281.3" y="161.2" font-family="'TrajanPro-Regular'" font-size="46px" rotate="64.7"> </tspan><tspan x="292" y="184.3" font-family="'TrajanPro-Regular'" font-size="46px" rotate="70.8">L</tspan><tspan x="303.6" y="220.1" font-family="'TrajanPro-Regular'" font-size="46px" rotate="77.4">I</tspan><tspan x="310.4" y="249.8" font-family="'TrajanPro-Regular'" font-size="46px" rotate="85.6">N</tspan><tspan x="313.1" y="303.4" font-family="'TrajanPro-Regular'" font-size="46px" rotate="94.6">E</tspan><tspan x="309.2" y="341.7" stroke="#000000" stroke-miterlimit="10" font-family="'ModernSansLight'" font-size="42px" rotate="101.1"> </tspan><tspan x="303.4" y="368.7" stroke="#000000" stroke-miterlimit="10" font-family="'TrajanPro-Regular'" font-size="42px" rotate="106"> </tspan><tspan x="296.6" y="391.1" stroke="#000000" stroke-miterlimit="10" font-family="'TrajanPro-Regular'" font-size="42px" rotate="110.5"> </tspan><tspan x="288.1" y="412.8" stroke="#000000" stroke-miterlimit="10" font-family="'TrajanPro-Regular'" font-size="42px" rotate="115"> </tspan><tspan x="277.9" y="433.8" stroke="#000000" stroke-miterlimit="10" font-family="'TrajanPro-Regular'" font-size="42px" rotate="119.5"> </tspan><tspan x="266" y="453.9" stroke="#000000" stroke-miterlimit="10" font-family="'TrajanPro-Regular'" font-size="42px" rotate="124.1"> </tspan></text>
	<path id="XMLID_141_" fill="none" d="M-1390.7,216.4c-100.9-127.8-79-313.2,48.8-414.1s313.2-79,414.1,48.8s79,313.2-48.8,414.1
		C-1113.4,373.1-1299.4,332.1-1390.7,216.4z"/>
	<text id="XMLID_140_" transform="matrix(-0.7638 -0.6454 0.6454 -0.7638 -1347.9143 259.8798)"><tspan x="0" y="0" font-family="'TrajanPro-Regular'" font-size="30px"> </tspan><tspan x="16.8" y="0.2" font-family="'TrajanPro-Regular'" font-size="30px" rotate="3.4"> </tspan><tspan x="33.6" y="1.4" font-family="'TrajanPro-Regular'" font-size="30px" rotate="6.8"> </tspan><tspan x="50.3" y="3.6" font-family="'TrajanPro-Regular'" font-size="30px" rotate="10.3"> </tspan><tspan x="66.7" y="6.8" font-family="'TrajanPro-Regular'" font-size="30px" rotate="13.9">ยบ</tspan><tspan x="86.3" y="11.9" font-family="'TrajanPro-Regular'" font-size="30px" rotate="17.5"> </tspan><tspan x="102.2" y="17" font-family="'TrajanPro-Regular'" font-size="30px" rotate="21.9">A</tspan><tspan x="128" y="27.5" font-family="'TrajanPro-Regular'" font-size="30px" rotate="27.9">D</tspan><tspan x="158.1" y="44.1" font-family="'TrajanPro-Regular'" font-size="30px" rotate="34.1">V</tspan><tspan x="182" y="60.8" font-family="'TrajanPro-Regular'" font-size="30px" rotate="39.4">E</tspan><tspan x="201.3" y="76.8" font-family="'TrajanPro-Regular'" font-size="30px" rotate="45.3">N</tspan><tspan x="225.7" y="102.3" font-family="'TrajanPro-Regular'" font-size="30px" rotate="51.4">T</tspan><tspan x="242.8" y="124" font-family="'TrajanPro-Regular'" font-size="30px" rotate="57.1">U</tspan><tspan x="259.7" y="150.9" font-family="'TrajanPro-Regular'" font-size="30px" rotate="63">R</tspan><tspan x="272.7" y="177.4" font-family="'TrajanPro-Regular'" font-size="30px" rotate="68.3">E</tspan><tspan x="281.7" y="201" font-family="'TrajanPro-Regular'" font-size="30px" rotate="73.1">S</tspan><tspan x="288.3" y="224.2" font-family="'TrajanPro-Regular'" font-size="30px" rotate="77.1"> </tspan><tspan x="291.9" y="240.6" font-family="'TrajanPro-Regular'" font-size="30px" rotate="80.7">ยบ</tspan></text>
	<path id="XMLID_165_" fill="none" d="M-907.4-108.1c77.9,143,25.1,322.1-117.9,400s-322.1,25.1-400-117.9s-25.1-322.1,117.9-400
		C-1154.4-309.3-977.9-237.5-907.4-108.1z"/>
	<text id="XMLID_164_" transform="matrix(0.347 0.9379 -0.9379 0.347 -891.8795 -75.0393)"><tspan x="0" y="0" font-family="'ModernSansLight'" font-size="30px"> </tspan><tspan x="19.9" y="0.2" font-family="'TrajanPro-Regular'" font-size="30px" rotate="3.9">ยบ</tspan><tspan x="40" y="1.9" font-family="'TrajanPro-Regular'" font-size="30px" rotate="7.5"> </tspan><tspan x="56.7" y="4.2" font-family="'TrajanPro-Regular'" font-size="30px" rotate="11.5">S</tspan><tspan x="80.2" y="9.3" font-family="'TrajanPro-Regular'" font-size="30px" rotate="16.5">P</tspan><tspan x="105.2" y="16.8" font-family="'TrajanPro-Regular'" font-size="30px" rotate="22.3">O</tspan><tspan x="136.8" y="30.3" font-family="'TrajanPro-Regular'" font-size="30px" rotate="28.5">R</tspan><tspan x="162.5" y="44.7" font-family="'TrajanPro-Regular'" font-size="30px" rotate="34.1">T</tspan><tspan x="185.2" y="60.7" font-family="'TrajanPro-Regular'" font-size="30px" rotate="38.3"> </tspan><tspan x="198.3" y="71.2" font-family="'TrajanPro-Regular'" font-size="30px" rotate="41.9">ยบ</tspan><tspan x="213.1" y="84.9" font-family="'TrajanPro-Regular'" font-size="30px" rotate="45.5"> </tspan><tspan x="224.8" y="97.1" font-family="'TrajanPro-Regular'" font-size="30px" rotate="48.8"> </tspan><tspan x="235.8" y="109.8" font-family="'TrajanPro-Regular'" font-size="30px" rotate="52"> </tspan><tspan x="246" y="123.3" font-family="'TrajanPro-Regular'" font-size="30px" rotate="55.3"> </tspan><tspan x="255.4" y="137.2" font-family="'TrajanPro-Regular'" font-size="30px" rotate="58.6"> </tspan></text>
	<circle id="XMLID_57_" fill="none" stroke="#000000" stroke-width="3" stroke-miterlimit="10" cx="-1159.3" cy="33.1" r="380.9"/>
	<path id="XMLID_126_" fill="#12352E" stroke="#000000" stroke-miterlimit="10" d="M-1101.9,339.8"/>
	
		<ellipse id="XMLID_163_" transform="matrix(4.955782e-04 -1 1 4.955782e-04 -1238.7109 -1079.325)" fill="none" cx="-1159.3" cy="80" rx="284.9" ry="284.3"/>
	<text id="XMLID_127_" transform="matrix(0.7858 0.6184 -0.6184 0.7858 -1345.0042 296.0493)"><tspan x="0" y="0" font-family="'TrajanPro-Regular'" font-size="46px">S</tspan><tspan x="40.2" y="-1.1" font-family="'TrajanPro-Regular'" font-size="46px" rotate="-7.5">I</tspan><tspan x="74.8" y="-5.9" font-family="'TrajanPro-Regular'" font-size="46px" rotate="-16.9">N</tspan><tspan x="130.6" y="-24.8" font-family="'TrajanPro-Regular'" font-size="46px" rotate="-28.2">C</tspan><tspan x="175.1" y="-50.6" font-family="'TrajanPro-Regular'" font-size="46px" rotate="-37.2">E</tspan><tspan x="207.5" y="-77" font-family="'TrajanPro-Regular'" font-size="46px" rotate="-44.7"> </tspan><tspan x="227.6" y="-97.6" font-family="'TrajanPro-Regular'" font-size="46px" rotate="-51.7">2</tspan><tspan x="251.9" y="-130" font-family="'TrajanPro-Regular'" font-size="46px" rotate="-59.9">0</tspan><tspan x="271.3" y="-165.5" font-family="'TrajanPro-Regular'" font-size="46px" rotate="-68.1">0</tspan><tspan x="285.5" y="-203.4" font-family="'TrajanPro-Regular'" font-size="46px" rotate="-76.2">2</tspan></text>
	<path id="XMLID_57_" fill="#12352E" stroke="#000000" stroke-miterlimit="10" d="M-1168.5-144"/>
</g>
<g id="XMLID_56_">
	<g id="XMLID_54_">
		<path id="XMLID_423_" d="M727.8,647.5c0-34.7,0-41.1-0.5-48.4c-0.5-7.8-2.3-11.4-9.8-13c-1.8-0.5-5.7-0.7-8.9-0.7
			c-2.5,0-3.9-0.5-3.9-2.1c0-1.6,1.6-2.1,5-2.1c12.1,0,26.5,0.7,32.9,0.7c7.1,0,21.5-0.7,35.2-0.7c28.6,0,66.7,0,91.6,26
			c11.4,11.9,22.2,30.8,22.2,58c0,28.8-12.1,50.7-24.9,63.7c-10.5,10.7-34.3,27-76.5,27c-8.2,0-17.6-0.7-26.3-1.4
			c-8.7-0.7-16.7-1.4-22.4-1.4c-2.5,0-7.5,0-13,0.2c-5.3,0-11.2,0.5-15.8,0.5c-3,0-4.6-0.7-4.6-2.3c0-1.1,0.9-1.8,3.7-1.8
			c3.4,0,6.2-0.5,8.2-0.9c4.6-0.9,5.7-5.9,6.6-12.6c1.1-9.6,1.1-27.6,1.1-48.7V647.5z M756.4,672.7c0,24.2,0.2,41.8,0.5,46.1
			c0.2,5.7,0.7,14.9,2.5,17.4c3,4.3,11.9,9.1,29.9,9.1c23.3,0,38.8-4.6,52.5-16.4c14.6-12.6,19.2-33.4,19.2-56.9
			c0-29-12.1-47.7-21.9-57.1c-21-20.1-47.1-22.8-64.9-22.8c-4.6,0-13,0.7-14.9,1.6c-2.1,0.9-2.7,2.1-2.7,4.6
			c-0.2,7.8-0.2,27.6-0.2,45.7V672.7z"/>
		<path id="XMLID_427_" d="M1005.2,603.7c-5.3-12.6-9.1-15.1-17.4-17.4c-3.4-0.9-7.1-0.9-8.9-0.9c-2.1,0-2.7-0.7-2.7-2.1
			c0-1.8,2.5-2.1,5.9-2.1c12.1,0,25.1,0.7,33.1,0.7c5.7,0,16.7-0.7,28.1-0.7c2.7,0,5.3,0.5,5.3,2.1c0,1.6-1.4,2.1-3.4,2.1
			c-3.7,0-7.1,0.2-8.9,1.6c-1.6,1.1-2.3,2.7-2.3,4.8c0,3,2.1,9.4,5.3,17.6l39.3,103.7h0.9c9.8-25.1,39.5-98.7,45-113.8
			c1.1-3,2.1-6.4,2.1-8.5c0-1.8-0.9-3.7-3-4.3c-2.7-0.9-6.2-1.1-9.1-1.1c-2.1,0-3.9-0.2-3.9-1.8c0-1.8,2.1-2.3,6.4-2.3
			c11.4,0,21,0.7,24,0.7c3.9,0,14.6-0.7,21.5-0.7c3,0,4.8,0.5,4.8,2.1c0,1.6-1.4,2.1-3.7,2.1c-2.3,0-7.1,0-11.2,2.7
			c-3,2.1-6.4,5.9-12.6,20.6c-8.9,21.5-15.1,33.8-27.4,61.9c-14.6,33.4-25.4,58.3-30.4,69.7c-5.9,13.3-7.3,16.9-10.5,16.9
			c-3,0-4.3-3.2-8.7-13.9L1005.2,603.7z"/>
		<path id="XMLID_429_" d="M1276.1,647.5c0-34.7,0-41.1-0.5-48.4c-0.5-7.8-2.3-11.4-9.8-13c-1.8-0.5-5.7-0.7-8.9-0.7
			c-2.5,0-3.9-0.5-3.9-2.1c0-1.6,1.6-2.1,5-2.1c6.2,0,12.8,0.2,18.5,0.2c5.9,0.2,11.2,0.5,14.4,0.5c7.3,0,52.8,0,57.1-0.2
			c4.3-0.5,8-0.9,9.8-1.4c1.1-0.2,2.5-0.9,3.7-0.9c1.1,0,1.4,0.9,1.4,2.1c0,1.6-1.1,4.3-1.8,14.9c-0.2,2.3-0.7,12.3-1.1,15.1
			c-0.2,1.1-0.7,2.5-2.3,2.5s-2.1-1.1-2.1-3.2c0-1.6-0.2-5.5-1.4-8.2c-1.6-4.1-3.9-6.9-15.3-8.2c-3.9-0.5-27.9-0.9-32.4-0.9
			c-1.1,0-1.6,0.7-1.6,2.3v57.8c0,1.6,0.2,2.5,1.6,2.5c5,0,31.3,0,36.6-0.5c5.5-0.5,8.9-1.1,11-3.4c1.6-1.8,2.5-3,3.7-3
			c0.9,0,1.6,0.5,1.6,1.8c0,1.4-0.9,5-1.8,16.7c-0.2,4.6-0.9,13.7-0.9,15.3c0,1.8,0,4.3-2.1,4.3c-1.6,0-2.1-0.9-2.1-2.1
			c-0.2-2.3-0.2-5.3-0.9-8.2c-1.1-4.6-4.3-8-12.8-8.9c-4.3-0.5-27-0.7-32.4-0.7c-1.1,0-1.4,0.9-1.4,2.3v18c0,7.8-0.2,28.8,0,35.4
			c0.5,15.8,4.1,19.2,27.4,19.2c5.9,0,15.5,0,21.5-2.7c5.9-2.7,8.7-7.5,10.3-16.9c0.5-2.5,0.9-3.4,2.5-3.4c1.8,0,1.8,1.8,1.8,4.1
			c0,5.3-1.8,20.8-3,25.4c-1.6,5.9-3.7,5.9-12.3,5.9c-17.1,0-29.7-0.5-39.5-0.7c-9.8-0.5-16.9-0.7-23.8-0.7c-2.5,0-7.5,0-13,0.2
			c-5.3,0-11.2,0.5-15.8,0.5c-3,0-4.6-0.7-4.6-2.3c0-1.1,0.9-1.8,3.7-1.8c3.4,0,6.2-0.5,8.2-0.9c4.6-0.9,5.7-5.9,6.6-12.6
			c1.1-9.6,1.1-27.6,1.1-48.7V647.5z"/>
		<path id="XMLID_472_" d="M1517.9,722.9c0.5,17.8,3.4,23.8,8,25.4c3.9,1.4,8.2,1.6,11.9,1.6c2.5,0,3.9,0.5,3.9,1.8
			c0,1.8-2.1,2.3-5.3,2.3c-14.9,0-24-0.7-28.3-0.7c-2.1,0-12.8,0.7-24.7,0.7c-3,0-5-0.2-5-2.3c0-1.4,1.4-1.8,3.7-1.8
			c3,0,7.1-0.2,10.3-1.1c5.9-1.8,6.9-8.5,7.1-28.3l2.1-134.6c0-4.6,0.7-7.8,3-7.8c2.5,0,4.6,3,8.5,7.1c2.7,3,37.5,39.5,70.8,72.6
			c15.5,15.5,46.4,48.4,50.3,52.1h1.1l-2.3-102.6c-0.2-13.9-2.3-18.3-7.8-20.6c-3.4-1.4-8.9-1.4-12.1-1.4c-2.7,0-3.7-0.7-3.7-2.1
			c0-1.8,2.5-2.1,5.9-2.1c11.9,0,22.8,0.7,27.6,0.7c2.5,0,11.2-0.7,22.4-0.7c3,0,5.3,0.2,5.3,2.1c0,1.4-1.4,2.1-4.1,2.1
			c-2.3,0-4.1,0-6.9,0.7c-6.4,1.8-8.2,6.6-8.5,19.4l-2.5,144.2c0,5-0.9,7.1-3,7.1c-2.5,0-5.3-2.5-7.8-5
			c-14.4-13.7-43.6-43.6-67.4-67.2c-24.9-24.7-50.3-52.5-54.4-56.9h-0.7L1517.9,722.9z"/>
		<path id="XMLID_476_" d="M1836.3,594.1l-34,0.9c-13.3,0.5-18.7,1.6-22.2,6.6c-2.3,3.4-3.4,6.2-3.9,8c-0.5,1.8-1.1,2.7-2.5,2.7
			c-1.6,0-2.1-1.1-2.1-3.7c0-3.7,4.3-24.4,4.8-26.3c0.7-3,1.4-4.3,2.7-4.3c1.8,0,4.1,2.3,9.8,2.7c6.6,0.7,15.3,1.1,22.8,1.1h90.5
			c7.3,0,12.3-0.7,15.8-1.1c3.4-0.7,5.3-1.1,6.2-1.1c1.6,0,1.8,1.4,1.8,4.8c0,4.8-0.7,20.6-0.7,26.5c-0.2,2.3-0.7,3.7-2.1,3.7
			c-1.8,0-2.3-1.1-2.5-4.6l-0.2-2.5c-0.5-5.9-6.6-12.3-27-12.8l-28.8-0.7v93.7c0,21,0,39.1,1.1,48.9c0.7,6.4,2.1,11.4,8.9,12.3
			c3.2,0.5,8.2,0.9,11.7,0.9c2.5,0,3.7,0.7,3.7,1.8c0,1.6-1.8,2.3-4.3,2.3c-15.1,0-29.5-0.7-35.9-0.7c-5.3,0-19.6,0.7-28.8,0.7
			c-3,0-4.6-0.7-4.6-2.3c0-1.1,0.9-1.8,3.7-1.8c3.4,0,6.2-0.5,8.2-0.9c4.6-0.9,5.9-5.9,6.6-12.6c1.1-9.6,1.1-27.6,1.1-48.7V594.1z"
			/>
		<path id="XMLID_478_" d="M2042.9,647.5c0-34.7,0-41.1-0.5-48.4c-0.5-7.8-2.3-11.4-9.8-13c-1.8-0.5-5.7-0.7-8.9-0.7
			c-2.5,0-3.9-0.5-3.9-2.1c0-1.6,1.6-2.1,5-2.1c12.1,0,26.5,0.7,33.4,0.7c5.5,0,19.9-0.7,28.1-0.7c3.4,0,5,0.5,5,2.1
			c0,1.6-1.4,2.1-3.7,2.1c-2.5,0-3.9,0.2-6.6,0.7c-6.2,1.1-8,5-8.5,13c-0.5,7.3-0.5,13.7-0.5,48.4v32c0,33.1,6.6,47.1,17.8,56.2
			c10.3,8.5,20.8,9.4,28.6,9.4c10.1,0,22.4-3.2,31.5-12.3c12.6-12.6,13.3-33.1,13.3-56.7v-28.6c0-34.7,0-41.1-0.5-48.4
			c-0.5-7.8-2.3-11.4-9.8-13c-1.8-0.5-5.7-0.7-8.2-0.7c-2.5,0-3.9-0.5-3.9-2.1c0-1.6,1.6-2.1,4.8-2.1c11.7,0,26,0.7,26.3,0.7
			c2.7,0,17.1-0.7,26-0.7c3.2,0,4.8,0.5,4.8,2.1c0,1.6-1.4,2.1-4.1,2.1c-2.5,0-3.9,0.2-6.6,0.7c-6.2,1.1-8,5-8.5,13
			c-0.5,7.3-0.5,13.7-0.5,48.4V672c0,25.4-2.5,52.3-21.7,68.8c-16.2,13.9-32.7,16.4-47.5,16.4c-12.1,0-34-0.7-50.7-15.8
			c-11.7-10.5-20.3-27.4-20.3-60.5V647.5z"/>
		<path id="XMLID_482_" d="M2331.9,647.5c0-34.7,0-41.1-0.5-48.4c-0.5-7.8-2.3-11.4-9.8-13c-1.8-0.5-5.7-0.7-8.9-0.7
			c-2.5,0-3.9-0.5-3.9-2.1c0-1.6,1.6-2.1,5-2.1c12.1,0,26.5,0.7,31.3,0.7c7.8,0,25.1-0.7,32.2-0.7c14.4,0,29.7,1.4,42,9.8
			c6.4,4.3,15.5,16,15.5,31.3c0,16.9-7.1,32.4-30.2,51.2c20.3,25.6,36.1,45.9,49.6,60.1c12.8,13.3,22.2,14.9,25.6,15.5
			c2.5,0.5,4.6,0.7,6.4,0.7s2.7,0.7,2.7,1.8c0,1.8-1.6,2.3-4.3,2.3H2463c-12.8,0-18.5-1.1-24.4-4.3c-9.8-5.3-18.5-16-31.3-33.6
			c-9.1-12.6-19.6-28.1-22.6-31.5c-1.1-1.4-2.5-1.6-4.1-1.6l-19.9-0.5c-1.1,0-1.8,0.5-1.8,1.8v3.2c0,21.2,0,39.3,1.1,48.9
			c0.7,6.6,2.1,11.7,8.9,12.6c3.4,0.5,8.5,0.9,11.2,0.9c1.8,0,2.7,0.7,2.7,1.8c0,1.6-1.6,2.3-4.6,2.3c-13.3,0-30.2-0.7-33.6-0.7
			c-4.3,0-18.7,0.7-27.9,0.7c-3,0-4.6-0.7-4.6-2.3c0-1.1,0.9-1.8,3.7-1.8c3.4,0,6.2-0.5,8.2-0.9c4.6-0.9,5.7-5.9,6.6-12.6
			c1.1-9.6,1.1-27.6,1.1-48.7V647.5z M2358.9,665.6c0,2.5,0.5,3.4,2.1,4.1c4.8,1.6,11.7,2.3,17.4,2.3c9.1,0,12.1-0.9,16.2-3.9
			c6.9-5,13.5-15.5,13.5-34.3c0-32.4-21.5-41.8-35-41.8c-5.7,0-9.8,0.2-12.1,0.9c-1.6,0.5-2.1,1.4-2.1,3.2V665.6z"/>
		<path id="XMLID_485_" d="M2588.9,647.5c0-34.7,0-41.1-0.5-48.4c-0.5-7.8-2.3-11.4-9.8-13c-1.8-0.5-5.7-0.7-8.9-0.7
			c-2.5,0-3.9-0.5-3.9-2.1c0-1.6,1.6-2.1,5-2.1c6.2,0,12.8,0.2,18.5,0.2c5.9,0.2,11.2,0.5,14.4,0.5c7.3,0,52.8,0,57.1-0.2
			c4.3-0.5,8-0.9,9.8-1.4c1.1-0.2,2.5-0.9,3.7-0.9c1.1,0,1.4,0.9,1.4,2.1c0,1.6-1.1,4.3-1.8,14.9c-0.2,2.3-0.7,12.3-1.1,15.1
			c-0.2,1.1-0.7,2.5-2.3,2.5c-1.6,0-2.1-1.1-2.1-3.2c0-1.6-0.2-5.5-1.4-8.2c-1.6-4.1-3.9-6.9-15.3-8.2c-3.9-0.5-27.9-0.9-32.4-0.9
			c-1.1,0-1.6,0.7-1.6,2.3v57.8c0,1.6,0.2,2.5,1.6,2.5c5,0,31.3,0,36.6-0.5c5.5-0.5,8.9-1.1,11-3.4c1.6-1.8,2.5-3,3.7-3
			c0.9,0,1.6,0.5,1.6,1.8c0,1.4-0.9,5-1.8,16.7c-0.2,4.6-0.9,13.7-0.9,15.3c0,1.8,0,4.3-2.1,4.3c-1.6,0-2.1-0.9-2.1-2.1
			c-0.2-2.3-0.2-5.3-0.9-8.2c-1.1-4.6-4.3-8-12.8-8.9c-4.3-0.5-27-0.7-32.4-0.7c-1.1,0-1.4,0.9-1.4,2.3v18c0,7.8-0.2,28.8,0,35.4
			c0.5,15.8,4.1,19.2,27.4,19.2c5.9,0,15.5,0,21.5-2.7c5.9-2.7,8.7-7.5,10.3-16.9c0.5-2.5,0.9-3.4,2.5-3.4c1.8,0,1.8,1.8,1.8,4.1
			c0,5.3-1.8,20.8-3,25.4c-1.6,5.9-3.7,5.9-12.3,5.9c-17.1,0-29.7-0.5-39.5-0.7c-9.8-0.5-16.9-0.7-23.8-0.7c-2.5,0-7.5,0-13,0.2
			c-5.3,0-11.2,0.5-15.8,0.5c-3,0-4.6-0.7-4.6-2.3c0-1.1,0.9-1.8,3.7-1.8c3.4,0,6.2-0.5,8.2-0.9c4.6-0.9,5.7-5.9,6.6-12.6
			c1.1-9.6,1.1-27.6,1.1-48.7V647.5z"/>
	</g>
	<g id="XMLID_63_">
		<path id="XMLID_190_" d="M1619.2,905.8c-1.5-0.7-1.8-1.1-1.8-3.2c0-5.2,0.4-10.9,0.5-12.4c0.1-1.4,0.4-2.5,1.1-2.5
			c0.9,0,1,0.9,1,1.6c0,1.2,0.4,3.2,0.9,4.8c2.1,7,7.7,9.6,13.6,9.6c8.5,0,12.7-5.8,12.7-10.8c0-4.7-1.4-9-9.3-15.2l-4.4-3.4
			c-10.4-8.2-14.1-14.8-14.1-22.5c0-10.4,8.7-17.9,21.9-17.9c6.2,0,10.2,1,12.6,1.6c0.9,0.2,1.3,0.5,1.3,1.1c0,1.2-0.4,4-0.4,11.4
			c0,2.1-0.3,2.8-1,2.8c-0.7,0-1-0.6-1-1.7c0-0.9-0.5-3.8-2.5-6.3c-1.4-1.8-4.2-4.7-10.3-4.7c-7,0-11.3,4.1-11.3,9.8
			c0,4.4,2.2,7.7,10.1,13.7l2.7,2c11.5,8.6,15.6,15.2,15.6,24.2c0,5.5-2.1,12.1-8.9,16.5c-4.7,3-10.1,3.9-15.1,3.9
			C1627.5,908.3,1623.3,907.6,1619.2,905.8z"/>
		<path id="XMLID_404_" d="M1706.9,862.7c0-14.4,0-17.1-0.2-20.1c-0.2-3.2-1.1-4.8-3.2-5.3c-1-0.3-2.3-0.4-3.4-0.4
			c-0.9,0-1.5-0.2-1.5-1c0-0.6,0.8-0.8,2.3-0.8c3.6,0,9.6,0.3,12.3,0.3c2.4,0,8-0.3,11.6-0.3c1.2,0,2,0.2,2,0.8c0,0.8-0.6,1-1.5,1
			c-0.9,0-1.7,0.1-2.8,0.3c-2.6,0.5-3.3,2.1-3.5,5.4c-0.2,3-0.2,5.7-0.2,20.1v16.7c0,9.2,0,16.7,0.4,20.8c0.3,2.6,0.9,4.3,3.8,4.7
			c1.3,0.2,3.4,0.4,4.8,0.4c1,0,1.5,0.3,1.5,0.8c0,0.7-0.8,1-1.8,1c-6.3,0-12.2-0.3-14.8-0.3c-2.2,0-8.2,0.3-12,0.3
			c-1.2,0-1.9-0.3-1.9-1c0-0.5,0.4-0.8,1.5-0.8c1.4,0,2.6-0.2,3.4-0.4c1.9-0.4,2.5-2,2.8-4.7c0.5-4,0.5-11.5,0.5-20.7V862.7z"/>
		<path id="XMLID_407_" d="M1782.4,894c0.2,7.4,1.4,9.9,3.3,10.5c1.6,0.6,3.4,0.7,4.9,0.7c1,0,1.6,0.2,1.6,0.8c0,0.8-0.9,1-2.2,1
			c-6.2,0-10-0.3-11.8-0.3c-0.9,0-5.3,0.3-10.3,0.3c-1.2,0-2.1-0.1-2.1-1c0-0.6,0.6-0.8,1.5-0.8c1.2,0,2.9-0.1,4.3-0.5
			c2.5-0.8,2.8-3.5,2.9-11.8l0.9-55.9c0-1.9,0.3-3.2,1.2-3.2c1,0,1.9,1.2,3.5,2.9c1.1,1.2,15.6,16.4,29.4,30.2
			c6.5,6.5,19.3,20.1,20.9,21.6h0.5l-0.9-42.6c-0.1-5.8-1-7.6-3.2-8.5c-1.4-0.6-3.7-0.6-5-0.6c-1.1,0-1.5-0.3-1.5-0.9
			c0-0.8,1-0.9,2.5-0.9c4.9,0,9.5,0.3,11.5,0.3c1,0,4.7-0.3,9.3-0.3c1.2,0,2.2,0.1,2.2,0.9c0,0.6-0.6,0.9-1.7,0.9
			c-1,0-1.7,0-2.8,0.3c-2.7,0.8-3.4,2.8-3.5,8.1l-1,59.9c0,2.1-0.4,2.9-1.2,2.9c-1,0-2.2-1-3.2-2.1c-6-5.7-18.1-18.1-28-27.9
			c-10.4-10.3-20.9-21.8-22.6-23.6h-0.3L1782.4,894z"/>
		<path id="XMLID_409_" d="M1894.7,897.9c-9.3-8.2-11.8-18.8-11.8-28c0-6.5,2-17.7,11.1-26c6.8-6.3,15.9-10.1,30-10.1
			c5.9,0,9.4,0.4,13.8,1c3.6,0.5,6.6,1.3,9.5,1.6c1,0.1,1.4,0.6,1.4,1.1c0,0.8-0.3,1.9-0.5,5.2c-0.2,3.1-0.1,8.4-0.3,10.3
			c-0.1,1.4-0.3,2.2-1.1,2.2c-0.8,0-0.9-0.8-0.9-2.1c-0.1-2.9-1.3-6.3-3.7-8.7c-3.1-3.3-10.5-5.9-19.3-5.9c-8.3,0-13.7,2.1-17.8,5.9
			c-6.9,6.4-8.7,15.4-8.7,24.6c0,22.6,17.2,33.8,29.9,33.8c8.4,0,13.6-1,17.4-5.3c1.6-1.8,2.8-4.6,3.2-6.3c0.3-1.5,0.5-1.9,1.2-1.9
			c0.7,0,0.9,0.7,0.9,1.4c0,1.1-1.1,9.4-2.1,12.6c-0.5,1.6-0.9,2.1-2.5,2.8c-3.8,1.5-11,2.2-17.1,2.2
			C1914.3,908.3,1903.3,905.4,1894.7,897.9z"/>
		<path id="XMLID_411_" d="M1996.5,862.7c0-14.4,0-17.1-0.2-20.1c-0.2-3.2-1-4.7-4.1-5.4c-0.8-0.2-2.4-0.3-3.7-0.3
			c-1,0-1.6-0.2-1.6-0.9c0-0.7,0.7-0.9,2.1-0.9c2.6,0,5.3,0.1,7.7,0.1c2.5,0.1,4.7,0.2,6,0.2c3,0,21.9,0,23.7-0.1
			c1.8-0.2,3.3-0.4,4.1-0.6c0.5-0.1,1-0.4,1.5-0.4c0.5,0,0.6,0.4,0.6,0.9c0,0.7-0.5,1.8-0.8,6.2c-0.1,1-0.3,5.1-0.5,6.3
			c-0.1,0.5-0.3,1-1,1s-0.9-0.5-0.9-1.3c0-0.7-0.1-2.3-0.6-3.4c-0.7-1.7-1.6-2.8-6.4-3.4c-1.6-0.2-11.6-0.4-13.5-0.4
			c-0.5,0-0.7,0.3-0.7,1v24c0,0.7,0.1,1,0.7,1c2.1,0,13,0,15.2-0.2c2.3-0.2,3.7-0.5,4.6-1.4c0.7-0.8,1-1.2,1.5-1.2
			c0.4,0,0.7,0.2,0.7,0.8c0,0.6-0.4,2.1-0.8,6.9c-0.1,1.9-0.4,5.7-0.4,6.4c0,0.8,0,1.8-0.9,1.8c-0.7,0-0.9-0.4-0.9-0.9
			c-0.1-1-0.1-2.2-0.4-3.4c-0.5-1.9-1.8-3.3-5.3-3.7c-1.8-0.2-11.2-0.3-13.5-0.3c-0.5,0-0.6,0.4-0.6,1v7.5c0,3.2-0.1,12,0,14.7
			c0.2,6.6,1.7,8,11.4,8c2.5,0,6.5,0,8.9-1.1c2.5-1.1,3.6-3.1,4.3-7c0.2-1,0.4-1.4,1-1.4c0.8,0,0.8,0.8,0.8,1.7
			c0,2.2-0.8,8.6-1.2,10.5c-0.7,2.5-1.5,2.5-5.1,2.5c-7.1,0-12.3-0.2-16.4-0.3c-4.1-0.2-7-0.3-9.9-0.3c-1,0-3.1,0-5.4,0.1
			c-2.2,0-4.7,0.2-6.6,0.2c-1.2,0-1.9-0.3-1.9-1c0-0.5,0.4-0.8,1.5-0.8c1.4,0,2.6-0.2,3.4-0.4c1.9-0.4,2.4-2.5,2.8-5.2
			c0.5-4,0.5-11.5,0.5-20.2V862.7z"/>
		<path id="XMLID_413_" d="M2128.9,906.7c-0.7,0-1.3-0.6-1.3-1.3c0-0.8,1-1.6,1.9-2.5c13.3-11.7,32.2-26.5,32.2-46.5
			c0-15-8.3-18-13-18c-4.1,0-7.2,0.8-10.1,3.4c-2.3,2.2-4,6.6-4,9.1c0,1-0.3,1.8-1.2,1.8c-0.5,0-0.8-0.7-0.9-1.8
			c-0.1-0.9-0.6-8.7-0.6-11.5c0-0.9,0.1-1.2,1.1-1.9c3.7-1.9,8.8-3.6,17.2-3.6c16.7,0,23.8,9.1,23.8,20.2
			c0,18.4-20.4,34.5-32.7,44.2c-0.5,0.4-0.3,0.7,0.2,0.7h6.5c1.6,0,12.8-0.1,16.3-0.6c6.6-0.8,9.7-4,10.8-8.4
			c0.3-1.1,0.6-1.5,1.1-1.5c0.7,0,0.8,0.9,0.8,1.8c0,1.5-1.8,10.3-2.8,13.6c-0.8,2.6-2.3,2.8-8.3,2.8H2128.9z"/>
		<path id="XMLID_415_" d="M2235.8,908.3c-18.7,0-23.8-21.6-23.8-35.1c0-22.1,7.8-39.3,25.4-39.3c18.8,0,23.8,19.9,23.8,35
			C2261.2,892.4,2252.2,908.3,2235.8,908.3z M2235.4,838.1c-7.1,0-12.2,9.8-12.2,31.4c0,16.4,4.1,34.5,14.5,34.5
			c7.7,0,12.4-13,12.4-31.4C2250.1,856.2,2245.7,838.1,2235.4,838.1z"/>
		<path id="XMLID_418_" d="M2320.1,908.3c-18.7,0-23.8-21.6-23.8-35.1c0-22.1,7.8-39.3,25.4-39.3c18.8,0,23.8,19.9,23.8,35
			C2345.4,892.4,2336.4,908.3,2320.1,908.3z M2319.6,838.1c-7.1,0-12.2,9.8-12.2,31.4c0,16.4,4.1,34.5,14.5,34.5
			c7.7,0,12.4-13,12.4-31.4C2334.3,856.2,2329.9,838.1,2319.6,838.1z"/>
		<path id="XMLID_421_" d="M2381.6,906.7c-0.7,0-1.3-0.6-1.3-1.3c0-0.8,1-1.6,1.9-2.5c13.3-11.7,32.2-26.5,32.2-46.5
			c0-15-8.3-18-13-18c-4.1,0-7.2,0.8-10.1,3.4c-2.3,2.2-4,6.6-4,9.1c0,1-0.3,1.8-1.2,1.8c-0.5,0-0.8-0.7-0.9-1.8
			c-0.1-0.9-0.6-8.7-0.6-11.5c0-0.9,0.1-1.2,1.1-1.9c3.7-1.9,8.8-3.6,17.2-3.6c16.7,0,23.8,9.1,23.8,20.2
			c0,18.4-20.4,34.5-32.7,44.2c-0.5,0.4-0.3,0.7,0.2,0.7h6.5c1.6,0,12.8-0.1,16.3-0.6c6.6-0.8,9.7-4,10.8-8.4
			c0.3-1.1,0.6-1.5,1.1-1.5c0.7,0,0.8,0.9,0.8,1.8c0,1.5-1.8,10.3-2.8,13.6c-0.8,2.6-2.3,2.8-8.3,2.8H2381.6z"/>
	</g>
	<g id="XMLID_55_">
		<path id="XMLID_453_" d="M1447.1-76.9"/>
	</g>
	<g id="XMLID_121_">
		<polygon id="XMLID_116_" points="47.5,912.3 26.6,901 313.6,371.4 616.6,750 831.7,26.9 1072.2,440.4 1248.4,141.8 1455.1,417.4 
			1613.1,287.7 1897.6,432.7 2214.7,83.8 2380.5,286.9 2657.7,196.8 2812.4,475.9 2791.6,487.4 2646.5,225.4 2372.4,314.5 
			2213.8,120.2 1903,462.1 1616.2,315.9 1450.9,451.4 1250.7,184.5 1072,487.4 838.8,86.3 626.4,800.3 317.4,414.2 		"/>
	</g>
	<g id="XMLID_64_">
		<g id="XMLID_153_">
			<path id="XMLID_189_" fill="#4D4F4F" d="M68.1,920.6c-0.5,0-1-0.1-1.5-0.3c-1.5-0.4-2.8-1.4-3.6-2.8c-3-5.2-1.2-8.3,24.7-29.2
				c14.7-11.8,34.9-27.3,54.4-42.3c9.9-7.6,20.5-15.7,30.6-23.6c-0.9,0.5-1.9,1-2.8,1.5c-1.7,0.9-3.5,1.9-5.2,2.9
				c-2.5,1.5-5,3-7.3,4.4c-56,33.8-56.2,33.7-59.8,32.8c-1.5-0.4-2.9-1.4-3.7-2.8c-0.3-0.6-0.6-1.2-0.7-1.9
				c-1.8-4.8,2.6-11,40.8-42.5c24-19.8,55.6-44.6,86.1-68.7c12.4-9.8,25.4-20,37.5-29.6c-22.9,14.2-27.5,15.7-31.2,14.8
				c-1.8-0.4-3.2-1.5-4.1-3c-3.1-5.3-0.5-8.4,23.2-27.1c5.9-4.7,12.7-9.9,19.7-15.3c-2.3,1.4-4.6,2.8-6.9,4.1
				c-91,54.4-91.7,54.3-95.7,53.2c-1.5-0.4-2.9-1.4-3.7-2.8c-3.6-6.2-4.1-7.2,82.4-81.8c11.7-10.1,24.6-21.2,36-31.2
				c-9.6,5.7-19.5,11.6-27.9,16.6c-43.2,25.8-43.2,25.8-46.2,25c-1.5-0.4-2.9-1.4-3.7-2.8c-3.1-5.3-2.4-7.8,32.5-34.8
				c19.2-14.8,44.6-33.7,69.2-51.9c3.9-2.9,7.9-5.9,11.9-8.8c-75.5,45.6-76.4,45.4-80.3,44.4c-1.5-0.4-3-1.5-3.8-2.8
				c-3-5.1-0.2-7.4,15.4-19.7c8.8-7,21.2-16.6,34.3-26.7c12.6-9.8,27.8-21.5,41.8-32.5c-6.3,3.8-12.6,7.5-18.1,10.8
				c-40.7,24.4-40.7,24.4-43.8,23.6c-1.5-0.4-2.9-1.4-3.7-2.8c-3.2-5.5,1.2-8.6,14.1-17.8c1.1-0.8,2.2-1.5,3.3-2.4
				c-0.4,0-0.7-0.1-1-0.2c-1.5-0.4-2.9-1.4-3.7-2.8c-2.8-4.9,0.7-8.1,10.9-17.7c6.3-5.9,14.7-13.4,23.6-21.5
				c1.8-1.6,3.7-3.3,5.6-5.1c-11.8,6.8-12.2,6.7-14.2,6.2l1.6-5.7l5.2-2.9l-5.2,2.9l-2.7-5.3c1-0.5,11.9-6.9,21.5-12.4
				c30.9-18,30.9-17.9,33.4-17.3c1.5,0.4,2.8,1.4,3.6,2.8c2.9,5-0.6,8.6-13.2,20.4c-7.2,6.8-16.6,15.3-25.9,23.7
				c6.1-3.6,12-7.1,17-10.1c29.5-17.4,29.5-17.4,32.1-16.8c1.5,0.4,2.8,1.4,3.6,2.8c1.9,3.3,1,6.1-3.2,10.2c4.9-2.3,5.8-2.1,7.3-1.7
				c1.5,0.4,2.9,1.4,3.7,2.8c3.1,5.4,1,8.8-28.6,32.8c-13.3,10.7-29.9,23.7-45.9,36c3.7-2.2,7.3-4.4,10.8-6.5
				c71.3-43.1,71.9-43,75.8-42c1.5,0.4,2.9,1.5,3.7,2.8c3.1,5.4,1,7.7-24.8,27.4c-14.6,11.2-34.4,25.8-55.2,41.3
				c-12.8,9.5-27.1,20.1-40.8,30.3c45.3-26.9,46.1-26.7,49.3-25.8c1.5,0.4,2.9,1.4,3.7,2.8c2.9,5.1,0.9,7.7-22.1,28.2
				c-13.2,11.8-30.7,26.9-49.3,43c-16.3,14-35.6,30.7-51.1,44.5c16.5-9.7,36.4-21.6,54.3-32.3c81.5-48.8,81.9-48.6,85.7-47.7
				c1.5,0.4,2.9,1.4,3.7,2.8c2.9,5-0.2,7.5-13.4,17.8c-7.5,5.9-18,13.8-29.1,22.3c-3.2,2.5-6.7,5.1-10.2,7.8
				c23.8-15.1,25.6-15.5,29-14.7c1.6,0.4,3.1,1.5,3.9,2.9c3.1,5.3,1.4,7.9-28.7,32.4c-17.3,14.1-40.7,32.6-65.6,52.1
				c-27.6,21.7-60.9,48-85.9,68.5c2.9-1.6,5.9-3.3,9.2-5.1c19.2-11.4,33.2-19.7,43.6-25.7c15.7-9.3,22.9-13.2,26.6-14.6
				c3.4-1.5,4.2-1.2,5.4-0.9c1.5,0.4,2.9,1.4,3.7,2.8c0.8,1.4,1,3.1,0.6,4.6c-0.2,0.6-0.3,1.1-0.6,1.6c-2.1,4.5-9.4,10.8-25.4,23.7
				c-14.9,12-35.4,27.7-55.2,42.9c-9.7,7.4-20,15.4-29.9,23c2.2-0.6,4.8-0.5,6.6,2.6c1.7,2.8,0.7,6.5-2.1,8.1
				c-0.1,0.1-0.3,0.2-0.4,0.2c-1.5,0.8-12.7,7.3-22.6,13.1c-7.1,4.1-14.5,8.4-20.2,11.7C71.8,919.3,69.7,920.6,68.1,920.6z"/>
		</g>
	</g>
	<g id="XMLID_79_">
		<g id="XMLID_139_">
			<path id="XMLID_156_" fill="#4D4F4F" d="M759.5,423.2c-0.5,0-0.9-0.1-1.5-0.3c-1.5-0.4-2.8-1.4-3.6-2.8c-3-5.2,0.6-7.9,12.3-17.1
				c2.2-1.7,4.6-3.6,7.2-5.6c-8.2,4.5-8.9,4.3-10.5,3.9c-1.5-0.4-2.8-1.4-3.6-2.8c-2.9-5.1,1.6-9,8.4-15.1
				c4.6-4.1,11.2-9.6,20.2-16.9c14-11.4,31.8-25.4,48.7-38.6c-60.5,35.9-60.6,35.9-64,35c-1.5-0.4-2.9-1.4-3.7-2.8
				c-3.6-6.2-4.5-7.7,91.5-93c3.9-3.5,7.8-7,11.7-10.4c-2.7,1.6-5.4,3.2-8,4.8c-72.4,43.3-72.9,43.2-76.7,42.2
				c-1.5-0.4-2.9-1.4-3.7-2.8c-2.4-4.1-1.2-5.4,10.3-17.9c6-6.5,14.4-15.5,23.6-25.4c14.1-15.1,33.7-36.1,48.1-52.1
				c-4.2,2.5-8.4,5-12.4,7.3c-46.8,27.7-46.8,27.7-50,26.9c-1.5-0.4-2.9-1.4-3.7-2.8c-2.5-4.2-2.5-4.2,24.2-33.1
				c7-7.6,16.1-17.4,24.2-26.4c-31,18.1-31,18.1-33.6,17.4c-1.5-0.4-2.8-1.4-3.6-2.8c-2.4-4.2,0-7.1,5.6-11.6
				c-0.7-0.4-1.3-1.1-1.9-2c-1.8-2.7-1.1-6.4,1.6-8.2c0.2-0.1,0.3-0.2,0.5-0.3c0.9-0.5,8.7-5,17.7-10.2l20.7-11.9
				c12.4-7.1,12.4-7.1,14.8-6.5c1.5,0.4,2.8,1.4,3.6,2.8c1.3,2.2,1.3,4,0.1,6c0.6,0,1,0.1,1.5,0.2c1.5,0.4,2.8,1.4,3.6,2.8
				c3,5.1,3.2,5.6-45,57.8c4.6-2.7,9.2-5.4,13.6-8c41.7-24.7,41.7-24.7,44.7-23.9c1.5,0.4,2.9,1.4,3.6,2.8
				c3.1,5.4,3.5,6.1-69.4,84.2c-3.2,3.5-6.5,7-9.6,10.3c13-7.7,28.3-16.8,41.4-24.6c54.6-32.7,54.5-32.7,58-31.8
				c1.5,0.4,2.9,1.4,3.7,2.8c3,5.3,3,5.3-51.4,53.6c-19.3,17.1-44.2,39.2-62.7,56.4c8.8-5.2,18.2-10.8,26.9-15.9
				c65.3-38.7,65.3-38.7,68.8-37.8c1.5,0.4,2.9,1.4,3.7,2.8c2.6,4.6-1,7.7-5.1,11.2c-2.5,2.1-6.1,5.1-11.1,9.1
				c-9.3,7.5-22.3,17.6-36,28.4c-10.7,8.4-23.2,18.2-35.3,27.8c23.9-14,24.1-13.9,26.5-13.3c1.5,0.4,2.8,1.4,3.6,2.8
				c3.2,5.6-1.6,9.4-16,20.7c-5.3,4.2-11.6,9-18.2,14c0.7,0.5,1.3,1.2,2,2.2c1.7,2.8,0.8,6.5-2,8.1c-0.1,0.1-0.2,0.1-0.4,0.2
				c-1.2,0.7-10.3,5.9-19.1,11c-7.2,4.2-15.2,8.8-21.3,12.4C763.4,421.9,761.1,423.2,759.5,423.2z"/>
		</g>
	</g>
	<g id="XMLID_80_">
		<g id="XMLID_117_">
			<path id="XMLID_154_" fill="#4D4F4F" d="M1556.7,436.4c-0.6,0-1-0.1-1.5-0.2c-1.5-0.4-3-1.5-3.7-2.8c-2.3-4-2.3-4,13-22.1
				c7.6-9,18-21,28.5-33.2c8.5-9.9,17.9-20.8,26-30.3c-35.3,20.6-35.3,20.6-38,19.9l1.5-5.7l5.1-3l-5.1,3l-2.3-5.4
				c2.1-1,21.8-12.5,36.2-20.9c26.9-15.7,26.9-15.7,29.5-15c1.5,0.4,2.8,1.4,3.6,2.8c2.4,4.1,2.4,4.1-15.2,24.9
				c-8.9,10.5-20.7,24.2-32.3,37.6c-6.1,7.1-12.5,14.5-18.3,21.3c12.3-7.1,30.2-17.2,55.9-31.5c3.2-1.8,6.5-3.6,9.7-5.4
				c39.3-23.6,39.5-23.5,42.5-22.8c0.7,0.2,1.3,0.5,1.9,0.9c1.1,0.5,2.1,1.4,2.7,2.5c2.3,4.1,2.4,4.2-16.7,28.2
				c1-0.6,1.9-1.1,2.9-1.7c29.4-17.2,29.4-17.2,32.1-16.5l-1.5,5.7l-5.1,3l5.1-3l2.3,5.4c-1.7,0.8-15.7,9-26.9,15.6
				c-30.5,17.9-30.5,17.9-33.2,17.2c-1.5-0.4-2.8-1.4-3.6-2.8c-2.3-4-2.3-4,16.5-27.6c0.5-0.7,1.1-1.3,1.6-2
				c-3.7,2.1-8,4.5-12.9,7.2c-9.5,5.7-19.8,12-29.2,17.7c-53.8,32.8-62.7,37.7-66.5,37.9C1558.9,436.1,1557.6,436.4,1556.7,436.4z"
				/>
		</g>
	</g>
</g>
</svg>
