<?xml version="1.0" encoding="utf-8"?>
<!-- Generator: Adobe Illustrator 19.0.0, SVG Export Plug-In . SVG Version: 6.00 Build 0)  -->
<svg version="1.1" id="Layer_1" xmlns="http://www.w3.org/2000/svg" xmlns:xlink="http://www.w3.org/1999/xlink" x="0px" y="0px"
	 viewBox="0 0 100 100" enable-background="new 0 0 100 100" xml:space="preserve">
<g id="XMLID_59_">
	<g id="XMLID_499_">
		<line id="XMLID_152_" x1="49" y1="29" x2="49" y2="71"/>
		<rect id="XMLID_498_" x="49" y="29.2" width="0" height="41.8"/>
	</g>
	<g id="XMLID_473_">
		<line id="XMLID_151_" x1="48.5" y1="28" x2="39" y2="37.4"/>
		
			<rect id="XMLID_472_" x="43.7" y="26" transform="matrix(0.7071 0.7071 -0.7071 0.7071 35.9507 -21.381)" width="0.1" height="13.4"/>
	</g>
	<g id="XMLID_471_">
		<line id="XMLID_150_" x1="48.5" y1="35.2" x2="35.7" y2="48"/>
		
			<rect id="XMLID_470_" x="42.1" y="32.5" transform="matrix(0.7071 0.7071 -0.7071 0.7071 41.771 -17.599)" width="0.1" height="18.2"/>
	</g>
	<g id="XMLID_468_">
		<line id="XMLID_149_" x1="48.5" y1="42.7" x2="35" y2="56.2"/>
		
			<rect id="XMLID_467_" x="41.7" y="39.9" transform="matrix(0.7071 0.7071 -0.7071 0.7071 47.2142 -15.0681)" width="0.1" height="19.1"/>
	</g>
	<g id="XMLID_466_">
		<line id="XMLID_148_" x1="48.5" y1="49.5" x2="42.5" y2="55.5"/>
		
			<rect id="XMLID_465_" x="45.5" y="48.2" transform="matrix(0.7071 0.7071 -0.7071 0.7071 50.4442 -16.8208)" width="0.1" height="8.5"/>
	</g>
	<g id="XMLID_464_">
		<line id="XMLID_147_" x1="48.4" y1="28" x2="57.9" y2="37.4"/>
		
			<rect id="XMLID_463_" x="46.5" y="32.6" transform="matrix(0.7071 0.7071 -0.7071 0.7071 38.7023 -28.0249)" width="13.4" height="0.1"/>
	</g>
	<g id="XMLID_462_">
		<line id="XMLID_146_" x1="48.5" y1="35.2" x2="61.4" y2="48"/>
		
			<rect id="XMLID_461_" x="45.9" y="41.6" transform="matrix(0.7071 0.7071 -0.7071 0.7071 45.5294 -26.673)" width="18.2" height="0.1"/>
	</g>
	<g id="XMLID_460_">
		<line id="XMLID_145_" x1="48.5" y1="42.7" x2="62" y2="56.2"/>
		
			<rect id="XMLID_459_" x="45.7" y="49.4" transform="matrix(0.7071 0.7071 -0.7071 0.7071 51.1681 -24.6137)" width="19.1" height="0.1"/>
	</g>
	<g id="XMLID_458_">
		<line id="XMLID_143_" x1="48.5" y1="49.5" x2="54.6" y2="55.5"/>
		
			<rect id="XMLID_457_" x="47.3" y="52.4" transform="matrix(0.7071 0.7071 -0.7071 0.7071 52.212 -21.0904)" width="8.5" height="0.1"/>
	</g>
	<g id="XMLID_130_">
		<g id="XMLID_456_">
			<line id="XMLID_138_" x1="70" y1="40" x2="70" y2="65.6"/>
			<rect id="XMLID_455_" x="69.9" y="40" width="0.1" height="26"/>
		</g>
		<path id="XMLID_142_" stroke="#000000" stroke-miterlimit="10" d="M70,65.6"/>
		<path id="XMLID_125_" stroke="#000000" stroke-miterlimit="10" d="M69.9,39.9"/>
		<g id="XMLID_454_">
			<line id="XMLID_137_" x1="70" y1="40" x2="64" y2="46.1"/>
			
				<rect id="XMLID_453_" x="66.9" y="38.7" transform="matrix(0.7071 0.7071 -0.7071 0.7071 50.0452 -34.7779)" width="0.1" height="8.6"/>
		</g>
		<g id="XMLID_452_">
			<line id="XMLID_136_" x1="70" y1="44.5" x2="61.8" y2="52.7"/>
			
				<rect id="XMLID_451_" x="65.8" y="42.8" transform="matrix(0.7071 0.7071 -0.7071 0.7071 53.6905 -32.354)" width="0.1" height="11.6"/>
		</g>
		<g id="XMLID_449_">
			<line id="XMLID_135_" x1="70" y1="49.4" x2="61.3" y2="58"/>
			
				<rect id="XMLID_448_" x="65.6" y="47.6" transform="matrix(0.7071 0.7071 -0.7071 0.7071 57.1766 -30.7015)" width="0.1" height="12.2"/>
		</g>
		<g id="XMLID_445_">
			<line id="XMLID_134_" x1="70" y1="53.7" x2="66.1" y2="57.5"/>
			
				<rect id="XMLID_444_" x="68" y="52.9" transform="matrix(0.7071 0.7071 -0.7071 0.7071 59.2357 -31.8188)" width="0.1" height="5.4"/>
		</g>
		<g id="XMLID_443_">
			<line id="XMLID_440_" x1="70" y1="40" x2="76" y2="46"/>
			
				<rect id="XMLID_441_" x="68.7" y="42.9" transform="matrix(0.7071 0.7071 -0.7071 0.7071 51.7823 -39.0216)" width="8.6" height="0.1"/>
		</g>
		<g id="XMLID_439_">
			<line id="XMLID_437_" x1="69.9" y1="44.6" x2="78.1" y2="52.8"/>
			
				<rect id="XMLID_438_" x="68.3" y="48.6" transform="matrix(0.7071 0.7071 -0.7071 0.7071 56.103 -38.0995)" width="11.6" height="0.1"/>
		</g>
		<g id="XMLID_436_">
			<line id="XMLID_434_" x1="69.9" y1="49.4" x2="78.6" y2="58"/>
			
				<rect id="XMLID_435_" x="68.2" y="53.6" transform="matrix(0.7071 0.7071 -0.7071 0.7071 59.6975 -36.7867)" width="12.2" height="0.1"/>
		</g>
		<g id="XMLID_433_">
			<line id="XMLID_431_" x1="69.9" y1="53.7" x2="73.8" y2="57.5"/>
			
				<rect id="XMLID_432_" x="69.2" y="55.5" transform="matrix(0.7071 0.7071 -0.7071 0.7071 60.3624 -34.5405)" width="5.5" height="0.1"/>
		</g>
	</g>
	<g id="XMLID_430_">
		<line id="XMLID_428_" x1="29" y1="46" x2="29" y2="66"/>
		<rect id="XMLID_429_" x="29" y="45.9" width="0" height="20.1"/>
	</g>
	<g id="XMLID_427_">
		<line id="XMLID_425_" x1="29" y1="46.1" x2="24.7" y2="50.2"/>
		
			<rect id="XMLID_426_" x="26.8" y="45.2" transform="matrix(0.6978 0.7163 -0.7163 0.6978 42.5853 -4.6848)" width="0.1" height="5.9"/>
	</g>
	<g id="XMLID_424_">
		<line id="XMLID_422_" x1="28.9" y1="49.3" x2="23.1" y2="55.1"/>
		
			<rect id="XMLID_423_" x="25.9" y="48.1" transform="matrix(0.7071 0.7071 -0.7071 0.7071 44.5496 -3.0904)" width="0.1" height="8.3"/>
	</g>
	<g id="XMLID_421_">
		<line id="XMLID_419_" x1="28.9" y1="52.7" x2="22.8" y2="58.9"/>
		
			<rect id="XMLID_420_" x="25.8" y="51.5" transform="matrix(0.7071 0.7071 -0.7071 0.7071 47.0234 -1.9402)" width="0.1" height="8.7"/>
	</g>
	<g id="XMLID_418_">
		<line id="XMLID_416_" x1="28.9" y1="55.8" x2="26.2" y2="58.5"/>
		
			<rect id="XMLID_417_" x="27.5" y="55.2" transform="matrix(0.7071 0.7071 -0.7071 0.7071 48.4914 -2.7367)" width="0.1" height="3.9"/>
	</g>
	<g id="XMLID_415_">
		<line id="XMLID_413_" x1="28.9" y1="46" x2="33.1" y2="50.2"/>
		<rect id="XMLID_414_" x="28" y="48" transform="matrix(0.7102 0.704 -0.704 0.7102 42.8562 -7.881)" width="5.9" height="0.1"/>
	</g>
	<g id="XMLID_412_">
		<line id="XMLID_410_" x1="28.9" y1="49.3" x2="34.8" y2="55.1"/>
		
			<rect id="XMLID_411_" x="27.7" y="52.2" transform="matrix(0.7071 0.7071 -0.7071 0.7071 46.2581 -7.2143)" width="8.3" height="0.1"/>
	</g>
	<g id="XMLID_409_">
		<line id="XMLID_407_" x1="28.9" y1="52.7" x2="35.1" y2="58.9"/>
		
			<rect id="XMLID_408_" x="27.6" y="55.7" transform="matrix(0.7071 0.7071 -0.7071 0.7071 48.8204 -6.2784)" width="8.7" height="0.1"/>
	</g>
	<g id="XMLID_406_">
		<line id="XMLID_119_" x1="28.9" y1="55.8" x2="31.7" y2="58.5"/>
		
			<rect id="XMLID_404_" x="28.4" y="57.1" transform="matrix(0.7071 0.7071 -0.7071 0.7071 49.2952 -4.6771)" width="3.9" height="0.1"/>
	</g>
	<path id="XMLID_34_" fill="none" d="M32.3,17.2C50.5,7.6,73,14.6,82.5,32.8S85.1,73.5,66.9,83s-40.7,2.5-50.2-15.6
		C6.5,47.9,15.9,25.8,32.3,17.2z"/>
	<text id="XMLID_122_" transform="matrix(0.7034 -0.7108 0.7108 0.7034 21.6427 25.632)"><tspan x="0" y="0" font-family="'TrajanPro-Regular'" font-size="5.8013px">O</tspan><tspan x="6.6" y="0.1" font-family="'TrajanPro-Regular'" font-size="5.8013px" rotate="9.9">U</tspan><tspan x="12.5" y="1.3" font-family="'TrajanPro-Regular'" font-size="5.8013px" rotate="19.1">T</tspan><tspan x="17.5" y="3.1" font-family="'TrajanPro-Regular'" font-size="5.8013px" rotate="28.2">D</tspan><tspan x="23.3" y="6.3" font-family="'TrajanPro-Regular'" font-size="5.8013px" rotate="38.3">O</tspan><tspan x="28.3" y="10.4" font-family="'TrajanPro-Regular'" font-size="5.8013px" rotate="48.5">O</tspan><tspan x="32.6" y="15.5" font-family="'TrajanPro-Regular'" font-size="5.8013px" rotate="57.9">R</tspan><tspan x="35.5" y="20.3" font-family="'TrajanPro-Regular'" font-size="5.8013px" rotate="64.7"> </tspan><tspan x="36.8" y="23.3" font-family="'TrajanPro-Regular'" font-size="5.8013px" rotate="70.8">L</tspan><tspan x="38.3" y="27.8" font-family="'TrajanPro-Regular'" font-size="5.8013px" rotate="77.4">I</tspan><tspan x="39.1" y="31.5" font-family="'TrajanPro-Regular'" font-size="5.8013px" rotate="85.6">N</tspan><tspan x="39.5" y="38.3" font-family="'TrajanPro-Regular'" font-size="5.8013px" rotate="94.6">E</tspan><tspan x="39" y="43.1" stroke="#000000" stroke-miterlimit="10" font-family="'ModernSansLight'" font-size="5.2969px" rotate="101.1"> </tspan><tspan x="38.3" y="46.5" stroke="#000000" stroke-miterlimit="10" font-family="'TrajanPro-Regular'" font-size="5.2969px" rotate="106"> </tspan><tspan x="37.4" y="49.4" stroke="#000000" stroke-miterlimit="10" font-family="'TrajanPro-Regular'" font-size="5.2969px" rotate="110.5"> </tspan><tspan x="36.3" y="52.1" stroke="#000000" stroke-miterlimit="10" font-family="'TrajanPro-Regular'" font-size="5.2969px" rotate="115"> </tspan><tspan x="35" y="54.7" stroke="#000000" stroke-miterlimit="10" font-family="'TrajanPro-Regular'" font-size="5.2969px" rotate="119.5"> </tspan><tspan x="33.5" y="57.3" stroke="#000000" stroke-miterlimit="10" font-family="'TrajanPro-Regular'" font-size="5.2969px" rotate="124.1"> </tspan></text>
	<path id="XMLID_32_" fill="none" d="M20.5,73.4c-12.7-16.1-10-39.5,6.2-52.2s39.5-10,52.2,6.2s10,39.5-6.2,52.2
		C55.5,93.1,32,88,20.5,73.4z"/>
	<text id="XMLID_140_" transform="matrix(-0.7647 -0.6444 0.6444 -0.7647 25.9246 78.8803)"><tspan x="0" y="0" font-family="'TrajanPro-Regular'" font-size="3.7835px"> </tspan><tspan x="2.1" y="0" font-family="'TrajanPro-Regular'" font-size="3.7835px" rotate="3.4"> </tspan><tspan x="4.3" y="0.2" font-family="'TrajanPro-Regular'" font-size="3.7835px" rotate="6.8"> </tspan><tspan x="6.4" y="0.5" font-family="'TrajanPro-Regular'" font-size="3.7835px" rotate="10.3"> </tspan><tspan x="8.4" y="0.9" font-family="'TrajanPro-Regular'" font-size="3.7835px" rotate="14">ยบ</tspan><tspan x="10.9" y="1.5" font-family="'TrajanPro-Regular'" font-size="3.7835px" rotate="17.5"> </tspan><tspan x="12.9" y="2.2" font-family="'TrajanPro-Regular'" font-size="3.7835px" rotate="21.9">A</tspan><tspan x="16.2" y="3.5" font-family="'TrajanPro-Regular'" font-size="3.7835px" rotate="28">D</tspan><tspan x="20" y="5.6" font-family="'TrajanPro-Regular'" font-size="3.7835px" rotate="34.2">V</tspan><tspan x="23" y="7.7" font-family="'TrajanPro-Regular'" font-size="3.7835px" rotate="39.5">E</tspan><tspan x="25.4" y="9.7" font-family="'TrajanPro-Regular'" font-size="3.7835px" rotate="45.4">N</tspan><tspan x="28.5" y="12.9" font-family="'TrajanPro-Regular'" font-size="3.7835px" rotate="51.5">T</tspan><tspan x="30.7" y="15.7" font-family="'TrajanPro-Regular'" font-size="3.7835px" rotate="57.2">U</tspan><tspan x="32.8" y="19.1" font-family="'TrajanPro-Regular'" font-size="3.7835px" rotate="63.1">R</tspan><tspan x="34.4" y="22.4" font-family="'TrajanPro-Regular'" font-size="3.7835px" rotate="68.5">E</tspan><tspan x="35.6" y="25.4" font-family="'TrajanPro-Regular'" font-size="3.7835px" rotate="73.3">S</tspan><tspan x="36.4" y="28.4" font-family="'TrajanPro-Regular'" font-size="3.7835px" rotate="77.3"> </tspan><tspan x="36.8" y="30.4" font-family="'TrajanPro-Regular'" font-size="3.7835px" rotate="80.9">ยบ</tspan></text>
	<path id="XMLID_28_" fill="none" d="M81.4,32.4c9.8,18,3.2,40.6-14.9,50.4S26,86.1,16.1,68S13,27.4,31,17.6
		C50.3,7.1,72.6,16.1,81.4,32.4z"/>
	<text id="XMLID_164_" transform="matrix(0.3476 0.9376 -0.9376 0.3476 83.394 36.5903)"><tspan x="0" y="0" font-family="'ModernSansLight'" font-size="3.7835px"> </tspan><tspan x="2.5" y="0" font-family="'TrajanPro-Regular'" font-size="3.7835px" rotate="4">ยบ</tspan><tspan x="5.1" y="0.2" font-family="'TrajanPro-Regular'" font-size="3.7835px" rotate="7.6"> </tspan><tspan x="7.2" y="0.5" font-family="'TrajanPro-Regular'" font-size="3.7835px" rotate="11.6">S</tspan><tspan x="10.1" y="1.2" font-family="'TrajanPro-Regular'" font-size="3.7835px" rotate="16.5">P</tspan><tspan x="13.3" y="2.1" font-family="'TrajanPro-Regular'" font-size="3.7835px" rotate="22.4">O</tspan><tspan x="17.3" y="3.8" font-family="'TrajanPro-Regular'" font-size="3.7835px" rotate="28.6">R</tspan><tspan x="20.5" y="5.7" font-family="'TrajanPro-Regular'" font-size="3.7835px" rotate="34.1">T</tspan><tspan x="23.4" y="7.7" font-family="'TrajanPro-Regular'" font-size="3.7835px" rotate="38.4"> </tspan><tspan x="25" y="9" font-family="'TrajanPro-Regular'" font-size="3.7835px" rotate="42">ยบ</tspan><tspan x="26.9" y="10.7" font-family="'TrajanPro-Regular'" font-size="3.7835px" rotate="45.6"> </tspan><tspan x="28.4" y="12.3" font-family="'TrajanPro-Regular'" font-size="3.7835px" rotate="48.8"> </tspan><tspan x="29.8" y="13.9" font-family="'TrajanPro-Regular'" font-size="3.7835px" rotate="52.1"> </tspan><tspan x="31" y="15.6" font-family="'TrajanPro-Regular'" font-size="3.7835px" rotate="55.4"> </tspan><tspan x="32.2" y="17.3" font-family="'TrajanPro-Regular'" font-size="3.7835px" rotate="58.7"> </tspan></text>
	<path id="XMLID_120_" d="M49.7,98.5c-6.5,0-12.8-1.3-18.8-3.8c-5.7-2.4-10.9-5.9-15.3-10.3C11.1,79.9,7.7,74.8,5.2,69
		c-2.5-5.9-3.8-12.3-3.8-18.8s1.3-12.8,3.8-18.8c2.4-5.7,5.9-10.9,10.3-15.3c4.4-4.4,9.6-7.9,15.3-10.3C36.9,3.3,43.2,2,49.7,2
		s12.8,1.3,18.8,3.8c5.7,2.4,10.9,5.9,15.3,10.3c4.4,4.4,7.9,9.6,10.3,15.3c2.5,5.9,3.8,12.3,3.8,18.8S96.6,63.1,94.1,69
		c-2.4,5.7-5.9,10.9-10.3,15.3c-4.4,4.4-9.6,7.9-15.3,10.3C62.5,97.2,56.2,98.5,49.7,98.5z M49.7,2.4c-6.5,0-12.7,1.3-18.6,3.8
		C25.4,8.6,20.2,12,15.8,16.4S8,25.9,5.6,31.6c-2.5,5.9-3.8,12.2-3.8,18.6S3.1,63,5.6,68.9c2.4,5.7,5.9,10.8,10.3,15.2
		c4.4,4.4,9.5,7.8,15.2,10.3c5.9,2.5,12.2,3.8,18.6,3.8c6.5,0,12.7-1.3,18.6-3.8c5.7-2.4,10.8-5.9,15.2-10.3
		c4.4-4.4,7.8-9.5,10.3-15.2c2.5-5.9,3.8-12.2,3.8-18.6s-1.3-12.7-3.8-18.6c-2.4-5.7-5.9-10.8-10.3-15.2S74,8.6,68.3,6.2
		C62.4,3.7,56.1,2.4,49.7,2.4z"/>
	<g id="XMLID_126_">
		<path id="XMLID_504_" d="M56.9,88.9"/>
		<path id="XMLID_503_" stroke="#000000" stroke-miterlimit="10" d="M56.9,88.9"/>
	</g>
	
		<ellipse id="XMLID_18_" transform="matrix(4.955782e-04 -1 1 4.955782e-04 -6.5125 105.8146)" fill="none" cx="49.7" cy="56.2" rx="35.9" ry="35.8"/>
	<text id="XMLID_127_" transform="matrix(0.7862 0.6179 -0.6179 0.7862 26.2733 83.4294)"><tspan x="0" y="0" font-family="'TrajanPro-Regular'" font-size="5.8013px">S</tspan><tspan x="5" y="-0.1" font-family="'TrajanPro-Regular'" font-size="5.8013px" rotate="-7.5">I</tspan><tspan x="9.4" y="-0.7" font-family="'TrajanPro-Regular'" font-size="5.8013px" rotate="-16.9">N</tspan><tspan x="16.4" y="-3.1" font-family="'TrajanPro-Regular'" font-size="5.8013px" rotate="-28.2">C</tspan><tspan x="22.1" y="-6.4" font-family="'TrajanPro-Regular'" font-size="5.8013px" rotate="-37.2">E</tspan><tspan x="26.2" y="-9.7" font-family="'TrajanPro-Regular'" font-size="5.8013px" rotate="-44.7"> </tspan><tspan x="28.7" y="-12.3" font-family="'TrajanPro-Regular'" font-size="5.8013px" rotate="-51.6">2</tspan><tspan x="31.8" y="-16.4" font-family="'TrajanPro-Regular'" font-size="5.8013px" rotate="-59.9">0</tspan><tspan x="34.2" y="-20.8" font-family="'TrajanPro-Regular'" font-size="5.8013px" rotate="-68">0</tspan><tspan x="36" y="-25.6" font-family="'TrajanPro-Regular'" font-size="5.8013px" rotate="-76.2">2</tspan></text>
	<path id="XMLID_57_" stroke="#000000" stroke-miterlimit="10" d="M48.5,27.9"/>
</g>
</svg>
